<?xml version="1.0" encoding="utf-8"?>
<!-- Generator: Adobe Illustrator 26.3.1, SVG Export Plug-In . SVG Version: 6.00 Build 0)  -->
<svg version="1.1" id="Layer_1" xmlns="http://www.w3.org/2000/svg" xmlns:xlink="http://www.w3.org/1999/xlink" x="0px" y="0px"
	 viewBox="0 0 1012 518" style="enable-background:new 0 0 1012 518;" xml:space="preserve">
<style type="text/css">
	.st0{fill:#DCE6FF;}
	.st1{fill:#D4E8FF;}
	.st2{fill:#EEF7FF;}
	.st3{fill:#CFDDF9;}
	.st4{fill:#CE4ABF;}
	.st5{fill:#7689D6;}
	.st6{fill-rule:evenodd;clip-rule:evenodd;fill:#F49F9F;}
	.st7{fill-rule:evenodd;clip-rule:evenodd;fill:#FCB4B4;}
	.st8{fill:#C92828;}
	.st9{fill:#3A72AA;}
	.st10{fill:#F99370;}
	.st11{fill:#1D3F70;}
	.st12{fill:#E8C0A6;}
	.st13{fill:#395B96;}
	.st14{fill:#23659B;}
	.st15{fill:#163260;}
	.st16{fill:#234270;}
	.st17{fill:#0B274F;}
	.st18{fill:#F4D4BE;}
	.st19{fill:#E57D61;}
	.st20{fill:#C16256;}
	.st21{fill-rule:evenodd;clip-rule:evenodd;fill:#C16256;}
	.st22{fill:#103663;}
	.st23{fill:#0F2E54;}
	.st24{fill:#9358E0;}
	.st25{fill:#7640CC;}
	.st26{fill:#EB5648;}
	.st27{fill:#CE3932;}
	.st28{opacity:0.4;fill:#FFFFFF;enable-background:new    ;}
	.st29{fill-rule:evenodd;clip-rule:evenodd;fill:#CE3932;}
	.st30{fill:#8A9EDD;}
	.st31{fill:#FFFFFF;}
	.st32{fill:#F5FAFF;}
	.st33{fill:#F49F9F;}
	.st34{fill:#F9C0C0;}
	.st35{fill:#D1A68F;}
	.st36{fill:#163860;}
	.st37{fill:#8C4225;}
	.st38{fill:#F9F8F3;}
	.st39{fill:#7F341C;}
	.st40{fill:#99452B;}
	.st41{fill:#FCB4B4;}
	.st42{fill:#AAB9E8;}
	.st43{fill:#10325B;}
	.st44{fill:#D64343;}
	.st45{fill:#163356;}
	.st46{fill:#2E619E;}
</style>
<g>
	<path class="st0" d="M969.6,425.3H39.2c8-18,25.4-27.7,52.2-28.9c37.3-1.7,31.2,13.6,84.4,13.6c48.6,0,46-37.6,79.8-41.6
		c55-6.3,109.4,54.5,132.6,20.4c59.4-135.7,188.1-90.4,232.3,0c23.2,34.1,72.7-33.8,132.6-20.4c32.5,7.3,31.2,41.6,79.8,41.6
		c53.2,0,47.1-15.3,84.4-13.6C944.2,397.6,961.6,407.2,969.6,425.3z"/>
	<g>
		<path class="st1" d="M177.2,424c-79.4-128.4-90.5-207-33.4-235.6c57.3-28.7,118,34.5,190.4,1.1c64.5-29.8,44-120.3,146.9-132.9
			c115.7-14.1,141.1,154.9,236.1,131.8c115.2-28,229.8,28.8,130.7,235.9L177.2,424z"/>
		<path class="st2" d="M1010.1,425.3H-1.3c8.7-42.2,27.6-64.8,56.7-67.6c40.6-4,33.9,31.8,91.8,31.8c52.9,0,48.5-89,86.8-97.3
			c60.3-13.1,118.9,127.5,144.1,47.7c17.5-88.2,64.7-138,135.6-136.4c156.9,3.6,42.3,288.3,239.6,88.6
			c38.5-38.9,55.4,97.4,108.2,97.4c57.8,0,51.2-35.8,91.8-31.8C982.5,360.5,1001.4,383,1010.1,425.3L1010.1,425.3z"/>
		<path class="st3" d="M1009.1,425.3c22.6,39.7-348.1,25.2-257.1,44.3c91,19.1-179.5,32-337.2,28.7
			c-157.6-3.3-206.5-12.2-174.2-18.8c57.3-11.7-178.7-27-218.9-32.8c-19.6-2.9-27-10-22.3-21.3H1009.1z"/>
	</g>
</g>
<g>
	<g>
		<path class="st0" d="M88.2,464.1c-2-4-4-8.2-5.9-12.4l4.7-0.9c1.9,4.2,3.8,8.3,5.8,12.4L88.2,464.1z M926.6,458.9l-4.8-0.4
			c0.8-4.3,1.6-8.6,2.3-12.9l4.9,0.3C928.1,450.2,927.4,454.5,926.6,458.9z M77,439.1c-1.7-4.2-3.4-8.4-4.9-12.6l4.7-0.8
			c1.5,4.2,3.2,8.4,4.9,12.5L77,439.1z M930.9,433l-4.9-0.3c0.6-4.3,1.2-8.6,1.7-12.9l4.9,0.2C932.1,424.3,931.5,428.7,930.9,433z
			 M67.6,413.9c-1.4-4.2-2.8-8.6-4-12.8l4.8-0.6c1.2,4.2,2.5,8.4,4,12.6L67.6,413.9z M934,407.1l-4.9-0.2c0.4-4.3,0.8-8.7,1.1-12.9
			l4.9,0.2C934.8,398.5,934.4,402.8,934,407.1z M60.1,388.3c-1.1-4.3-2.1-8.6-3-12.9l4.9-0.5c0.9,4.2,1.9,8.5,2.9,12.8L60.1,388.3z
			 M935.8,381.2l-4.9-0.1c0.2-4.3,0.3-8.7,0.4-12.9l4.9,0C936.1,372.5,936,376.8,935.8,381.2z M54.7,362.6c-0.7-4.3-1.4-8.7-1.9-13
			l4.9-0.2c0.5,4.2,1.1,8.6,1.9,12.9L54.7,362.6z M931.3,355.2c-0.1-4.3-0.2-8.7-0.4-12.9l4.9-0.1c0.2,4.3,0.3,8.6,0.4,13
			L931.3,355.2z M51.5,336.6c-0.3-4.4-0.5-8.7-0.7-13l4.9-0.1c0.1,4.2,0.3,8.6,0.7,12.9L51.5,336.6z M930.2,329.4
			c-0.3-4.3-0.7-8.7-1.2-12.9l4.9-0.2c0.5,4.3,0.9,8.6,1.2,13L930.2,329.4z M55.7,310.7l-4.9-0.1c0.1-4.4,0.4-8.8,0.8-13l4.9,0.2
			C56.1,302,55.9,306.3,55.7,310.7z M927.2,303.6c-0.7-4.3-1.4-8.6-2.2-12.8l4.8-0.4c0.8,4.2,1.5,8.6,2.2,12.9L927.2,303.6z
			 M58.1,284.9l-4.9-0.3c0.7-4.3,1.5-8.7,2.4-12.9l4.8,0.4C59.5,276.3,58.7,280.6,58.1,284.9L58.1,284.9z M922.3,278
			c-1-4.3-2.1-8.6-3.3-12.7l4.8-0.6c1.2,4.2,2.3,8.5,3.3,12.8L922.3,278z M344.1,277.5c-6.8-0.7-11.7-2.8-18.5-6.3l3.1-2.5
			c6,3.1,10.3,4.9,15.9,5.5L344.1,277.5z M361,269.9l-4.3-1.5c2.2-2.9,4.2-6.9,5.9-11.9l4.8,0.7C365.6,262.6,363.5,266.7,361,269.9
			L361,269.9z M311.2,262c-3.9-2.9-8.1-6.1-12.7-10l3.8-2c4.6,3.9,8.7,7.1,12.5,9.9L311.2,262z M63.7,259.4l-4.8-0.6
			c1.3-4.3,2.7-8.6,4.2-12.8l4.7,0.8C66.4,250.9,65,255.1,63.7,259.4z M915,252.6c-1.5-4.3-3-8.5-4.6-12.5l4.7-0.8
			c1.7,4.1,3.2,8.3,4.7,12.6L915,252.6z M370.6,244.2l-4.8-0.4c0.7-3.8,1.4-8.1,2-12.9l4.9,0.3C372.1,236.1,371.4,240.3,370.6,244.2
			z M286.5,241.6c-4-3.6-8.1-7.3-11.6-10.5l3.9-1.9c3.6,3.2,7.7,6.9,11.6,10.5L286.5,241.6z M644.4,241.3c-3.8,0-7.5-0.7-11.1-2.2
			l2.6-2.7c5.4,2.2,10.6,2.2,16.3,0.5l2.1,2.9C651,240.8,647.7,241.3,644.4,241.3z M73.1,234.4l-4.7-0.9c2-4.2,4.1-8.4,6.3-12.4
			l4.6,1.1C77.1,226.2,75,230.3,73.1,234.4L73.1,234.4z M670.3,231.3l-3.6-2.2c3.7-2.6,7.7-5.9,12.2-9.9l3.9,1.9
			C678.3,225.2,674.2,228.6,670.3,231.3L670.3,231.3z M619.5,229.1c-3.2-3.2-6.3-7-9.6-11.6l4.4-1.4c3.2,4.5,6.2,8.1,9.3,11.2
			L619.5,229.1z M905,227.7c-2-4.2-4.1-8.3-6.3-12.2l4.6-1.1c2.2,4,4.3,8.1,6.3,12.4L905,227.7z M263.3,220.6
			c-4.5-4-8.2-7.3-11.7-10.4l3.9-2c3.5,3.1,7.3,6.4,11.8,10.4L263.3,220.6z M374.2,218.2l-4.9-0.2c0.4-3.8,0.7-8,1.1-13l4.9,0.2
			C375,210.2,374.5,214.4,374.2,218.2z M86.7,210.3l-4.5-1.3c2.7-4,5.5-7.9,8.6-11.8l4.3,1.5C92.1,202.5,89.3,206.3,86.7,210.3
			L86.7,210.3z M694.1,210.3l-4.1-1.8c3.5-3.5,7.1-7.2,10.7-10.9l4.1,1.7C701.1,203.1,697.6,206.8,694.1,210.3L694.1,210.3z
			 M602,205.5c-2.2-3.7-4.5-7.7-7-12.2l4.6-1.1c2.4,4.5,4.7,8.5,6.9,12.1L602,205.5z M891.6,203.5c-2.6-4-5.4-8-8.3-11.7l4.4-1.5
			c2.9,3.7,5.7,7.7,8.4,11.8L891.6,203.5z M239.5,200c-4.4-3.6-8.6-6.8-12.6-9.9l3.7-2.1c4.1,3,8.3,6.3,12.8,10L239.5,200z
			 M376.4,192.2l-4.9-0.2c0.3-4.3,0.7-8.6,1-13l4.9,0.2C377,183.6,376.7,187.9,376.4,192.2z M715.5,188.5l-4.1-1.8
			c4.1-4.1,7.7-7.6,11.2-10.8l4,1.9C723.2,180.9,719.6,184.4,715.5,188.5L715.5,188.5z M104.8,187.6l-4.1-1.7
			c3.8-4,7.8-7.5,11.7-10.6l3.8,2.1C112.4,180.2,108.6,183.7,104.8,187.6L104.8,187.6z M588.5,181c-2.2-4.3-4.4-8.7-6.3-12.3l4.6-1
			c1.9,3.7,4.1,8,6.3,12.3L588.5,181z M213.4,180.8c-5-3.2-9.9-6-14.6-8.4l3-2.5c4.8,2.4,9.9,5.4,15,8.6L213.4,180.8z M873.8,180.7
			c-3.5-3.8-7.2-7.3-10.9-10.6l3.9-2c3.8,3.3,7.6,7,11.2,10.9L873.8,180.7z M129.9,168.5l-3-2.6c5.9-2.9,11.9-5.1,18.1-6.3l1.4,3.1
			C140.9,163.9,135.3,165.8,129.9,168.5L129.9,168.5z M738.4,167.5l-3.8-2c4.6-3.7,8.9-6.9,13.3-9.8l3.5,2.3
			C747.1,160.7,742.8,163.9,738.4,167.5L738.4,167.5z M378.5,166.3l-4.9-0.2c0.4-4.7,0.8-9,1.3-13l4.9,0.2
			C379.3,157.3,378.9,161.6,378.5,166.3L378.5,166.3z M182.6,165.6c-6.1-2-12.1-3.3-17.8-3.8l0.7-3.2c6.3,0.6,12.8,2,19.4,4.1
			L182.6,165.6z M850.3,160.4c-4.7-3.2-9.6-6-14.5-8.3l2.9-2.6c5.1,2.4,10.2,5.4,15.1,8.7L850.3,160.4z M575.9,156.4
			c-2.4-4.8-4.4-8.7-6.3-12.3l4.6-1.1c1.9,3.6,3.9,7.5,6.3,12.3L575.9,156.4z M765.9,149.7l-2.8-2.6c6-2.8,12.1-4.8,18.1-6.1
			l1.5,3.1C777.2,145.3,771.6,147.2,765.9,149.7L765.9,149.7z M819.3,145.8c-6.1-1.7-12.2-2.7-18.2-3.1l0.5-3.2
			c6.5,0.4,13.1,1.5,19.7,3.3L819.3,145.8z M381.3,140.4l-4.9-0.3c0.6-4.5,1.3-8.9,2-13l4.8,0.4
			C382.6,131.6,381.9,135.9,381.3,140.4L381.3,140.4z M563.1,131.8c-2.4-4.3-4.6-8.3-6.8-12.1l4.6-1.1c2.2,3.8,4.5,7.8,6.8,12.2
			L563.1,131.8z M385.8,114.6l-4.8-0.5c1-4.5,2.1-8.8,3.2-12.9l4.8,0.6C387.8,105.9,386.8,110.2,385.8,114.6L385.8,114.6z
			 M549.1,107.7c-2.6-4.2-5.3-8.1-7.9-11.8l4.4-1.4c2.6,3.7,5.3,7.7,7.9,12L549.1,107.7z M393.1,89.3l-4.7-0.8
			c1.7-4.5,3.6-8.7,5.6-12.6l4.6,1.1C396.6,80.7,394.8,84.9,393.1,89.3L393.1,89.3z M532.5,84.3c-3.2-4-6.5-7.7-9.8-11.2l4.2-1.7
			c3.3,3.5,6.7,7.3,10,11.3L532.5,84.3z M405.9,65.2l-4.4-1.4c3.2-4.3,6.8-8.1,10.6-11.3l3.8,2C412.4,57.5,409,61.1,405.9,65.2z
			 M511.6,62.7c-4.3-3.5-8.7-6.6-13.1-9.3l3.3-2.4c4.6,2.7,9.2,6,13.6,9.7L511.6,62.7z M429.6,46.1l-2.6-2.7c5.8-2.4,12.2-4,19-4.7
			l0.7,3.2C440.6,42.4,434.8,43.9,429.6,46.1L429.6,46.1z M483,46.1c-5.7-2-11.6-3.4-17.6-4.1l0.9-3.2c6.5,0.8,12.9,2.3,19.1,4.5
			L483,46.1z"/>
		<path class="st4" d="M771,183.7c-3.8,7.3-8.2,10.7-8.4,10.8l-0.8-1.1c0.1-0.1,4.3-3.3,7.9-10.2c-2.8-0.3-19.9-12-18.9-13.9
			c1.4-1.6,18,10,19.5,12.6c1.1-2.4,2.2-5.2,3-8.7c-2.2,0.6-21.6-10.6-20.5-12.5c1.2-1.8,19.7,9.2,20.7,11.5c0.6-2.7,1-5.8,1.1-9.2
			c-2.1,0.7-22.3-8.8-21.5-10.8c1.1-1.8,20,7.4,21.5,9.7c0-2.3-0.1-4.7-0.3-7.3c-1.6,1.2-22.8-8.9-21.7-10.8
			c1.1-1.9,20.4,7.6,21.6,9.8c-0.2-2.2-0.7-4.6-1.2-7c-2.6,0.2-21.8-8.8-21-10.8c1.1-1.7,18.2,6.6,20.6,8.9c-0.5-2.6-1-5-1.4-7.3
			c-2.2,0.4-20.7-12.2-19.6-14c1.4-1.5,17.5,9.7,19.2,12.3c-0.4-2.6-0.8-5-1.1-7.3c-2.4-0.1-18.7-14.8-17.3-16.5
			c1.5-1.3,15.3,11.3,17,14.3c-0.3-2.5-0.5-4.9-0.7-6.9c-1.9,0.4-16-18.6-14.1-19.8c1.8-1,13,14.4,14,17.6c-0.2-2.8-0.2-5.1-0.2-7.1
			c-2,0.1-12.2-21.3-10.1-22.1c1.9-0.7,9.6,15.9,10.2,19.4c0.5-5.3,0.1-7.1,2.3-14.9c4.1-15.3,7.4-14.4,3.2,0.9
			c-1.8,7.7-4.1,8.5-4.2,15c1.4-2.9,15.1-16.7,16.7-15.4c1.5,1.6-14.6,17.4-16.8,17.3c-0.1,2,0,4.5,0.2,7.5
			c1.3-2.7,17.1-15.4,18.6-13.9c1.3,1.7-16.3,15.6-18.5,15.3c0.2,2.2,0.4,4.6,0.7,7.2c1.6-2.8,16.9-15.1,18.4-13.6
			c1.2,1.8-15.7,15-18.2,15.2c0.3,2.4,0.7,4.9,1.1,7.7c1.6-2.8,16.9-15,18.4-13.6c1.2,1.8-15.5,14.9-18.1,15.2
			c0.4,2.3,0.9,4.7,1.4,7.3c1.4-2.7,17-15.3,18.6-13.8c1.2,1.8-15.7,15.1-18.3,15.2c0.5,2.4,1,5,1.3,7.3c1.6-2.4,19.3-12.7,20.6-11
			c1,2-18,12.6-20.4,12.3c0.3,2.7,0.4,5.3,0.3,7.7c1-2.1,20.9-11.6,21.9-9.7c1.1,1.9-20.4,11.8-21.9,10.5c-0.1,3.4-0.5,6.6-1.1,9.4
			c2.1-1.9,22-7.3,22.8-5.4c0.5,2.1-21.1,7.7-23.1,6.6c-0.8,3.5-2,6.5-3.1,9c2.5-1.5,22.8-3.3,23.2-1.2
			C794.9,183.4,772.8,185.1,771,183.7L771,183.7z"/>
		<path class="st5" d="M829.1,139.5c4.3,5.9,7.6,11.3,8.9,14.5c0.7-4.2,1.4-8,2.2-11.6c-3.5-1.4-20.5-32.3-17.5-34.1
			c3-1.2,17.1,25.1,18.2,30.6c0.9-4,1.8-7.6,2.6-10.9c-3.1-0.4-14.3-36.5-10.9-37.3c1.4-0.4,5.1,7.6,8.2,17.9
			c2,6.6,3.3,12.5,3.6,16.1c1.2-4.2,2.4-7.8,3.5-10.8c-3-0.8-7.1-38.6-3.6-38.7c3.2,0,6.1,29,5.2,34.7c3.5-7.8,3.9-10.6,11.3-21.3
			c14.3-20.9,18.8-17.9,4.4,3c-6.8,10.7-10.7,10.6-14.2,20.4c3.6-3.7,31.7-17.3,33.4-14.5c1.4,3.2-31.2,18.5-34.5,17.2
			c-1.1,3.1-2.4,6.8-3.7,11.4c3.3-3.3,34.1-14.3,35.6-11.2c1.1,3.3-33,14.9-36.1,13.3c-0.9,3.4-1.9,7.1-2.8,11.3
			c3.8-3.3,33.5-13.8,35-10.8c0.8,3.3-31.6,14.4-35.6,13.4c-0.8,3.7-1.6,7.8-2.3,12.3c3.9-3.3,33.5-13.8,35-10.8
			c0.8,3.3-31.3,14.3-35.4,13.4c-0.6,3.7-1.2,7.6-1.7,11.7c3.5-3.3,33.9-14.1,35.4-11.1c0.9,3.3-31.8,14.5-35.6,13.4
			c-0.5,3.9-1.1,7.9-1.9,11.6c3.7-2.8,35.9-9,36.9-5.8c0.4,3.4-33.8,9.5-37.4,7.8c-1,4.1-2.1,8-3.5,11.8c2.6-2.7,37.6-6.5,38.2-3.1
			c0.6,3.5-36.9,7.1-38.6,4.4c-1.8,4.8-4,9.2-6.6,13.5c4.2-1.8,37.2,0.6,37.3,4c-0.4,3.4-35.8,0.4-38.3-2.3c-2.8,4.4-6,8.4-9.5,11.9
			c4.6-0.9,36.3,7.1,35.8,10.5c-1,3.3-35.3-5.9-37.4-9c-9.5,9-17.9,11.8-18.3,11.9l-0.7-2c0.1,0,8.2-2.7,17.2-11.2
			c-4-2-23.8-28.6-21.2-30.9c3-1.6,21.9,24.7,22.8,29.4c2.9-2.9,6.1-6.7,9.2-11.5c-3.6-0.3-27-27.4-24.4-29.7
			c2.8-2,24.8,24.3,25.3,28.4c2.4-3.8,4.6-8.2,6.6-13.3c-3.6,0-29.1-25.2-26.8-27.7c2.7-2.1,26.3,21.8,27.4,26
			c1.3-3.4,2.4-7.2,3.3-11.2c-3,1-29.8-25.5-27.2-27.8c2.6-2.2,26.8,22.3,27.5,26.3c0.8-3.5,1.5-7.3,2-11.3
			c-4.1-1-28.3-24.8-26.1-27.4c2.6-2,24,19.6,26.5,24.4c0.6-4.2,1.1-8.1,1.7-11.8c-3.5-0.5-24.9-29.4-22.1-31.5
			C816.6,124.4,822.8,130.8,829.1,139.5L829.1,139.5z"/>
		<path class="st5" d="M888.2,214.4c0,4.6-0.3,8.6-0.8,10.7c1.9-1.9,3.7-3.6,5.4-5.1c-1.3-2,1.4-24,3.5-23.8
			c2,0.5-0.4,19.1-1.9,22.3c1.9-1.7,3.7-3.3,5.3-4.6c-1.5-1.4,6.1-23.9,8.1-23.1c0.9,0.3-0.2,5.8-2.4,12.2c-1.4,4.1-2.9,7.6-4,9.5
			c2.2-1.7,4.1-3.1,5.7-4.2c-1.2-1.5,10.5-22.3,12.4-21.1c1.6,1.1-7.5,17-10,19.6c4.6-2.7,5.9-4,13.6-6.8c15-5.5,16.1-2.2,1.1,3.2
			c-7.4,3-9.3,1.5-14.8,5.2c3.2-0.6,22.5,2.8,22.4,4.8c-0.4,2.1-22.7-2-23.9-3.8c-1.7,1.1-3.7,2.6-6,4.5c2.9-0.5,22.6,5.2,22.3,7.3
			c-0.7,2.1-22.3-4.4-23.3-6.4c-1.7,1.4-3.5,2.9-5.5,4.7c3.2-0.3,22.2,5.2,21.9,7.3c-0.8,2-21.4-4.2-23.1-6.2
			c-1.8,1.6-3.7,3.4-5.7,5.4c3.2-0.3,22.2,5.2,21.8,7.3c-0.8,2-21.2-4.2-23-6.1c-1.7,1.7-3.4,3.4-5.2,5.4c3-0.4,22.4,5.2,22.1,7.3
			c-0.8,2-21.5-4.2-23.1-6.2c-1.7,1.8-3.5,3.6-5.2,5.2c2.9-0.1,21.6,8.6,21,10.6c-1.1,1.9-20.8-7.5-21.9-9.7c-2,1.8-4,3.3-6.1,4.7
			c2.3-0.4,21.6,10.4,20.6,12.4c-1,2-21.5-9.9-21.3-11.9c-2.7,1.8-5.4,3.3-8.3,4.5c2.8,0.6,18.8,13.9,17.6,15.6
			c-1.5,1.6-18.4-12.9-18.8-15.2c-3,1.2-6.1,2.1-9.2,2.6c2.7,1.2,15.9,16.9,14.4,18.4c-1.7,1.3-15.9-15.9-15.8-18.2
			c-8.2,1.1-13.5-0.5-13.7-0.6l0.4-1.3c0,0,5.2,1.6,12.9,0.6c-1.3-2.5-1.6-23.3,0.5-23.6c2.1,0.2,2.1,20.6,0.9,23.4
			c2.6-0.4,5.6-1.2,8.9-2.5c-1.7-1.5-3.8-23.9-1.6-24.1c2.2,0,3.8,21.5,2.5,23.7c2.6-1.1,5.3-2.5,8.2-4.4
			c-1.8-1.3-5.6-23.5-3.5-23.9c2.2-0.1,5.5,20.8,4.5,23.3c1.9-1.3,3.9-2.8,5.8-4.5c-1.9-0.6-5.9-23.9-3.7-24.1
			c2.2-0.2,5.5,21.2,4.4,23.5c1.7-1.5,3.4-3.2,5.1-5c-1.8-2-5.4-23-3.3-23.5c2-0.1,5.1,18.8,4.6,22.1c1.8-1.9,3.5-3.7,5.2-5.4
			c-1.6-1.5-2-24.1,0.2-24.2C887.4,202.1,888.2,207.6,888.2,214.4L888.2,214.4z"/>
	</g>
	<g>
		<path class="st4" d="M228.2,153.6c1-1.9,20.1,5.2,22.1,7.3c-0.5-2.7-0.8-5.8-0.7-9.5c-2.2,0.5-21.5-10.5-20.5-12.4
			c1.3-1.7,19.1,8.8,20.6,11.2c0.2-2.9,0.6-5.9,1.4-9.3c-1.8,0.8-19.9-14.3-18.3-15.9c1.5-1.5,18.2,12.8,18.5,15.2
			c0.6-2.4,1.4-4.8,2.4-7.3c-2.4-0.3-17.9-15.6-16.5-17.3c1.7-1.3,16,13.3,17,16c0.9-2.1,2-4.4,3.1-6.7
			c-2.4-0.8-15.3-18.1-13.6-19.5c1.9-1,13.6,15.2,14.3,18.2c1.2-2.3,2.3-4.6,3.3-6.7c-2.4-1-15.1-18-13.5-19.4
			c1.8-1,13.3,14.8,14.2,17.9c1.2-2.5,2.2-4.9,3.1-7.1c-2.4-0.9-15.2-18.1-13.5-19.5c1.8-1,13.3,14.9,14.2,17.9
			c1-2.4,1.9-4.7,2.6-6.8c-2.2-0.3-15.6-18.3-13.9-19.6c1.8-1.1,13.8,15.4,14.3,18.3c0.9-2.8,1.6-5.2,2.1-7.2
			c-2.1-0.5-13.5-20-11.7-21.1c1.9-0.8,11.5,16.1,12.1,19.3c1.6-6.3-0.4-7.6-0.1-15.6c0-15.8,3.4-15.8,3.3,0c0,8.1-0.8,9.7-1.7,15
			c1.5-3.3,13.3-17.1,15-16c1.8,1.3-13.7,19.3-15.6,18.7c-0.5,1.9-1.1,4.2-2,6.8c1.8-2.8,16.7-14.7,18.1-13.3
			c1.5,1.6-17.1,16.2-18.8,15.3c-0.7,2-1.5,4.2-2.5,6.5c2.5-2.4,19.1-10.9,20.2-9.3c0.9,2-18.7,11.8-21,11.3c-0.9,2.1-1.9,4.4-3,6.8
			c2.4-2.1,20.9-8.7,21.8-6.8c0.7,2.1-20.6,9.4-22.6,8.4c-1,2.1-2.1,4.4-3.3,6.7c3-1.6,21.7-5.1,22.3-3.2c0.2,2.1-20.6,5.8-23.1,4.9
			c-1.1,2.2-2.1,4.4-3,6.5c1.8-1.8,22.9-5.9,23.4-3.8c0.5,2.1-22.6,6.3-23.8,4.7c-0.9,2.4-1.7,4.7-2.2,7c2-1.8,22.7-5.7,23.3-3.7
			c0.3,2.2-21.7,6.1-23.6,4.8c-0.8,3.3-1.2,6.4-1.3,9.1c1.7-1.9,22.3-7.7,23.1-5.6c0.5,2.1-21.1,7.8-23.1,6.7
			c-0.1,3.5,0.2,6.6,0.7,9.2c2.1-2.1,21.2-9,22.2-7c0.5,2.1-19.1,8.8-21.9,8.4c1.6,7.6,4.9,11.8,4.9,11.9l-1.1,0.8
			c-0.2-0.2-3.5-4.6-5.2-12.6C248.5,163.1,227.6,155.6,228.2,153.6L228.2,153.6z"/>
		<path class="st4" d="M210.1,287.6c-1.9-1,5.2-20,7.3-22.1c-2.6,0.5-5.8,0.8-9.5,0.7c0.5,2.2-10.5,21.6-12.4,20.5
			c-1.7-1.3,8.7-19.1,11.2-20.6c-2.9-0.2-6-0.6-9.3-1.4c0.9,1.8-14.3,19.9-15.9,18.3c-1.6-1.5,12.8-18.2,15.1-18.5
			c-2.3-0.6-4.8-1.4-7.3-2.4c-0.3,2.4-15.6,17.9-17.2,16.5c-1.3-1.7,13.3-16.1,16-17c-2.1-0.9-4.5-2-6.7-3.1
			c-0.8,2.4-18.1,15.3-19.5,13.6c-1-1.9,15.2-13.6,18.2-14.3c-2.3-1.2-4.6-2.3-6.7-3.3c-1,2.4-18,15.1-19.4,13.5
			c-1-1.8,14.8-13.3,17.9-14.2c-2.5-1.1-4.9-2.2-7.1-3.1c-0.9,2.4-18,15.2-19.5,13.6c-1-1.8,14.9-13.3,17.9-14.2
			c-2.5-1-4.7-1.9-6.8-2.6c-0.3,2.2-18.3,15.6-19.6,13.9c-1-1.9,15.4-13.8,18.3-14.3c-2.8-1-5.2-1.6-7.2-2.1
			c-0.5,2.1-19.9,13.5-21,11.7c-0.8-1.9,16.1-11.5,19.2-12.1c-6.3-1.6-7.6,0.4-15.5,0.1c-15.9,0-15.9-3.4,0-3.3
			c8.2,0,9.7,0.8,15,1.7c-3.3-1.5-17.1-13.3-16-14.9c1.3-1.7,19.3,13.7,18.7,15.6c1.9,0.5,4.1,1.1,6.8,2
			c-2.8-1.8-14.8-16.6-13.3-18.1c1.6-1.5,16.3,17,15.4,18.8c2,0.7,4.2,1.5,6.5,2.5c-2.4-2.5-11-19.1-9.3-20.2
			c2-0.9,11.9,18.7,11.4,21c2.1,0.9,4.3,1.9,6.7,3c-2-2.4-8.7-20.9-6.8-21.8c2.1-0.7,9.4,20.5,8.4,22.5c2.1,1,4.4,2.1,6.7,3.3
			c-1.6-2.9-5.2-21.6-3.2-22.2c2.1-0.2,5.9,20.6,4.9,23.1c2.2,1.1,4.4,2.1,6.5,3c-1.8-1.8-5.9-22.9-3.8-23.4
			c2.1-0.5,6.3,22.6,4.7,23.8c2.4,0.9,4.8,1.7,7,2.2c-1.8-2-5.8-22.7-3.7-23.3c2.1-0.3,6.1,21.7,4.8,23.5c3.3,0.7,6.4,1.1,9.1,1.3
			c-1.9-1.7-7.7-22.3-5.6-23c2.1-0.5,7.8,21.1,6.7,23.1c3.5,0.1,6.6-0.2,9.2-0.6c-2.1-2.1-9-21.2-7.1-22.2
			c2.1-0.5,8.8,19.1,8.4,21.9c7.6-1.7,11.8-4.9,11.9-4.9l0.8,1.1c-0.2,0.1-4.6,3.5-12.6,5.2C219.6,267.3,212.1,288.2,210.1,287.6
			L210.1,287.6z"/>
		<path class="st5" d="M202.6,121.3c3.2,1.4-10.6,34.6-13.9,35.9c1.5,3.4,3,7.1,4.5,11c1.2-5.3,16.8-31.4,19.8-30.1
			c2.8,2-14.9,31-18.7,32.9c1.4,3.7,3,7.2,4.6,10.4c-0.2-4.1,17.2-33.7,20.3-32.1c3.1,1.6-16.5,33.7-19.6,33.5c1.9,3.7,3.9,7,6,10.1
			c0.1-4.3,17.2-33.3,20.3-31.8c2.9,1.9-15.7,32.5-19.2,33.3c3.1,4.4,6.4,8.1,9.5,11.3c-0.5-4.1,14.5-34.9,17.7-33.6
			c3.1,1.6-13.1,33.6-16.5,34.8c4.1,3.9,8.1,6.8,11.7,8.9c-0.2-4.7,11.7-34.9,15-34c3,1.6-9.6,32.3-13.1,35.2
			c10.8,6,19.3,6.7,19.4,6.7l-0.2,2.1c-0.4,0-9.2-0.7-20.7-7.1c-1.2,3.5-32.2,20.7-34,17.7c-1.3-3.2,27.5-18.6,32.2-18.8
			c-4.3-2.6-8.3-5.7-12.1-9.2c-1.8,3.2-35.4,14.7-36.6,11.5c-0.7-3.3,30.7-13.6,35.2-12.9c-3.6-3.5-6.7-7.4-9.6-11.5
			c-1,3-38.2,8.6-38.6,5.1c-0.3-3.5,34.6-8.2,37.8-6.2c-2.3-3.3-4.3-6.8-6.3-10.6c-3,2.5-37.7,4.9-38.2,1.5c0.2-3.4,33-5.2,37.2-3.4
			c-1.7-3.4-3.3-7.1-4.7-10.8c-3.5,2-37.9-0.9-37.8-4.3c0.7-3.3,32.7-0.2,37,2.2c-1.6-3.9-3.1-7.5-4.6-11c-3.8,1.9-37.6-1-37.6-4.4
			c0.7-3.3,32-0.2,36.5,2c-1.8-4.1-3.5-7.9-5.2-11.3c-3.7,2-37.8-0.9-37.8-4.4c0.7-3.3,32.1-0.2,36.6,2c-1.9-3.8-3.7-7.3-5.4-10.3
			c-2.7,2.3-38.5-0.7-38.3-4.2c0.7-3.3,33.2-0.2,37.2,2.3c-2.4-4.1-4.5-7.5-6.4-10.2c-2.9,2-38.2-4.9-37.6-8.3
			c1.1-3.2,31.6,3.2,36,5.9c-5.8-8.6-9.5-7.6-18.8-16.4c-19-16.8-15.4-20.9,3.6-4c9.8,8.6,10.8,11.3,16.1,18
			c-2.3-5.3-6.4-34.1-3.4-34.9c3.4-0.7,8.6,36.9,5.9,38.5c1.8,2.6,3.8,5.7,6,9.6c-0.6-3.5-0.8-9.6-0.4-16.5
			c0.5-10.8,2.2-19.5,3.7-19.4c3.5-0.1,1.4,37.7-1.5,38.9c1.6,2.9,3.4,6.3,5.2,9.9c-0.2-5.6,7.1-34.5,10.3-34.1
			c3.3,1-5.6,35-8.7,37.3c1.6,3.3,3.3,6.8,4.9,10.7c0.5-3.4,2.4-9.5,5.1-16.3C196.8,128.4,201.2,120.7,202.6,121.3L202.6,121.3z"/>
	</g>
</g>
<g>
	<path class="st6" d="M620.8,412c-39,42.1-107.2,53.5-159.3,30.6c-78.2-33-99.7-136.3-73.2-210.7c30.7-100,168.2-130.5,236.8-51.7
		C678.9,240.4,674.1,357.9,620.8,412L620.8,412z M520.8,194.2c-98.9-0.3-103.7,198.3-0.4,201.4C621,395,621.8,195.4,520.8,194.2z"/>
	<path class="st7" d="M599.3,412c-39,42.1-107.2,53.5-159.3,30.6c-78.2-33-99.7-136.3-73.2-210.7c30.7-100,168.2-130.5,236.8-51.7
		C657.4,240.4,652.5,357.9,599.3,412z M499.3,194.2c-99-0.3-103.7,198.3-0.4,201.4C599.5,395,600.3,195.4,499.3,194.2z"/>
</g>
<g>
	<path class="st6" d="M949.6,412c-39,42.1-107.2,53.5-159.3,30.6c-78.2-33-99.7-136.3-73.2-210.7c30.7-100,168.2-130.5,236.8-51.7
		C1007.7,240.4,1002.8,357.9,949.6,412L949.6,412z M849.6,194.2c-98.9-0.3-103.7,198.3-0.4,201.4C949.8,395,950.6,195.4,849.6,194.2
		z"/>
	<path class="st7" d="M928.1,412c-39,42.1-107.2,53.5-159.3,30.6c-78.2-33-99.7-136.3-73.2-210.7c30.7-100,168.2-130.5,236.8-51.7
		C986.2,240.4,981.3,357.9,928.1,412z M828.1,194.2c-99-0.3-103.7,198.3-0.4,201.4C928.3,395,929.1,195.4,828.1,194.2z"/>
</g>
<g>
	<path class="st8" d="M517.9,44.7c1.8-3.6,5.5-4.8,11.1-3.7c8.4,1.5,10.4,12.2,13.2,17c6,10.2,7.8,21.1,4.7,26.3
		c-3.5,5.8-11.2,3.5-22.3,2.5c-11.9-1.1-17-11.5-9.5-25.7L517.9,44.7z"/>
	<path class="st9" d="M521.4,69.3c-3.3,4.8-5.4,28.2-5.4,30c-3.8-0.3-13.1-1-17-1.2c-1.1-8.6,10.3-26.1,20.6-28.2
		C520.3,69.6,520.9,69.4,521.4,69.3z"/>
	<path class="st10" d="M471.9,196.4c2-2.4,5.4-2.1,8.5-3.1c2.4-0.7,2-3.9,1.8-5.4c4.8-0.6,7.2-0.9,7.2-0.9c-0.5,3,0.2,8.4,0.2,11.1
		l-16.6,0.2C471.9,198.3,471.3,197.2,471.9,196.4L471.9,196.4z"/>
	<path class="st11" d="M490,196.5c-0.1,0.6-0.2,1.1-0.5,1.6l-16.8,0.2c-0.8,0-1.4-0.8-1.1-1.5c0.6-1.8,2.8-4.4,10.5-4.9
		c0,0,2.7,0.7,7-0.1C489.9,193.3,490.2,194.9,490,196.5L490,196.5z"/>
	<path class="st12" d="M476.5,196c-0.1,0-0.2-0.1-0.3-0.2c-0.6-1.5-1.7-2-1.8-2c-0.9-1.3,1.7-0.4,2.4,1.7
		C476.9,195.8,476.7,196,476.5,196L476.5,196z"/>
	<path class="st12" d="M479.2,195.7c-0.2,0-0.3-0.1-0.3-0.2c-0.6-1.7-2.1-2.5-2.1-2.5c-0.8-1.6,2.1,0.1,2.8,2.4
		C479.6,195.5,479.4,195.7,479.2,195.7L479.2,195.7z"/>
	<path class="st12" d="M482.2,195.3c-0.2,0-0.3-0.1-0.3-0.2c-0.7-1.8-2.1-2.8-2.1-2.8c-0.6-1.6,2.1,0.3,2.8,2.6
		C482.6,195.1,482.4,195.3,482.2,195.3L482.2,195.3z"/>
	<path class="st13" d="M471.6,196.7l18.4-0.2c-0.1,0.6-0.2,1.1-0.5,1.6l-16.8,0.2C471.9,198.3,471.3,197.4,471.6,196.7z"/>
	<path class="st9" d="M525.6,134.8c-8.2-0.3-22.4-4.9-28.6,5.5c-6.7,11.4-5.1,35.5-4.4,47.2c-6,1.9-10.6,1.9-13.8,0
		c-3.8-23.9-16.5-78.3,25.7-70.7c0,0,9.4,0,28.3,0C537.5,126.4,533.3,134.6,525.6,134.8z"/>
	<path class="st10" d="M491.8,196.4c2-2.4,5.4-2.1,8.5-3.1c2.5-0.7,2-3.9,1.8-5.4c4.8-0.6,7.2-0.9,7.2-0.9c-0.5,3,0.2,8.4,0.2,11.1
		l-16.6,0.2C491.9,198.3,491.3,197.2,491.8,196.4L491.8,196.4z"/>
	<path class="st11" d="M510,196.5c-0.1,0.6-0.2,1.1-0.5,1.6l-16.8,0.2c-0.8,0-1.4-0.8-1.1-1.5c0.6-1.8,2.8-4.4,10.5-4.9
		c1.8,0.5,4.1,0.5,7-0.1C509.8,193.3,510.1,194.9,510,196.5L510,196.5z"/>
	<path class="st12" d="M496.5,196c-0.1,0-0.2-0.1-0.3-0.2c-0.6-1.5-1.7-2-1.8-2c-0.9-1.3,1.6-0.4,2.4,1.7
		C496.9,195.8,496.7,196,496.5,196z"/>
	<path class="st12" d="M499.1,195.7c-0.1,0-0.2-0.1-0.3-0.2c-0.6-1.7-2.1-2.5-2.1-2.5c-0.8-1.6,2.1,0.1,2.8,2.4
		C499.5,195.5,499.3,195.7,499.1,195.7L499.1,195.7z"/>
	<path class="st12" d="M502.1,195.3c-0.1,0-0.2-0.1-0.3-0.2c-0.7-1.8-2.1-2.8-2.1-2.8c-0.7-1.6,2,0.3,2.8,2.6
		C502.5,195.1,502.4,195.3,502.1,195.3L502.1,195.3z"/>
	<path class="st13" d="M491.5,196.7l18.4-0.2c-0.1,0.6-0.2,1.1-0.5,1.6l-16.8,0.2C491.8,198.3,491.3,197.4,491.5,196.7z"/>
	<path class="st14" d="M506.8,116.8l-2.4,17.6c-10.6,4.2-11.3,15.6-12.3,28.1C487.2,143.2,487.6,123.3,506.8,116.8L506.8,116.8z"/>
	<path class="st9" d="M536.3,135.6c-8.6,5.3-17.1-0.5-23.2,11.7c-4.9,10.7-2.1,31-0.8,40.2c-6,1.9-10.6,1.9-13.8,0
		c-5.3-20.6-17.5-68.5,16.9-70.7c9.5-0.3,21.9-0.2,30.2-0.7C547.1,124.3,544,130.8,536.3,135.6L536.3,135.6z"/>
	<path class="st9" d="M545.7,111.2c0.5,3.5,0.4,7.3-0.3,11.3c-11.2-3.5-21.3-3.9-38.2-6.2c10.7-32-14.1-9.6,14.2-46.9
		c0.1,0,6.9,0.6,7,0.6C536.4,75.9,541.5,83.8,545.7,111.2z"/>
	<path class="st14" d="M507,92.2c-0.2,0-0.3-0.2-0.3-0.3c0.6-4.7,5.5-10.8,6.2-10.4c0.4,0.6-5.3,5.6-5.6,10.4
		C507.3,92,507.1,92.2,507,92.2L507,92.2z"/>
	<path class="st15" d="M470.1,91.2h37.2l7.4,27.5h-37.4L470.1,91.2z"/>
	<path class="st16" d="M514.8,118.5v1.9h-37.4v-1.9H514.8z"/>
	<path class="st17" d="M506.8,91.2h1.3l7.3,27.3h17.8v1.9h-19v-1.6L506.8,91.2z"/>
	<path class="st10" d="M540.7,75.3c8.6,6.4,13.2,18.1,11,28.7c-0.9,5.9-4.6,11.6-10.5,13.3c-2.9,1.2-16.4,3-15.8-1.8
		c0.2-1.1,1.2-1.6,2.2-1.9c1.6-0.6,3.3-1.2,4.9-1.9c2.8-1.4,6.4-2.8,6.9-5.9c1.3-7.3-1.7-14.4-7.1-19.2c0,0,0,0,0,0
		C525,81.1,533.3,69.8,540.7,75.3L540.7,75.3z"/>
	<path class="st9" d="M545.9,115.9c-4.4,2-8.6,2.6-11.7,2.7c0.5-3.2-0.4-5.4-2.7-6.8c19.4-14.7-8.3-21-3-42.7
		C549.3,69.6,570.8,101.1,545.9,115.9L545.9,115.9z"/>
	<path class="st10" d="M517.2,118.5c1.1-3.9,5-5.6,11.6-5.1l2.1,5.1H517.2z"/>
	<path class="st14" d="M536.4,118.4c-1,0.1-1.7,0.2-2.3,0.2c0.5-3.2-0.4-5.4-2.7-6.8c0.6-0.4,1.2-0.9,2-1.5
		C535.9,112.2,536.9,114.9,536.4,118.4L536.4,118.4z"/>
	<path class="st14" d="M533.2,111.1c-0.2,0-0.4-0.3-0.2-0.5c8.6-7.7,4.4-15.8-0.7-21.1c-0.2-0.2,0.2-0.7,0.4-0.4
		C538.2,94.6,542.3,103.6,533.2,111.1z"/>
	<path class="st14" d="M536.3,118.5c-1.6-0.9,4.5-0.5,9.2-2.7c0.2-0.1,0.3,0,0.4,0.2c0.1,0.2,0,0.3-0.2,0.4
		C540.9,118.3,536.3,118.5,536.3,118.5z"/>
	<path class="st18" d="M530.4,77.9c-0.2,1.5-1.6,2-2,1.9c-5-2.1-1.5,4.6-3.5,5.3c-1.7,0.6-2-1.7-3.5-1.8c-2.2-0.2-2.6,1-3.4,0.3
		c-1.1-1,1.5-2.8,1.2-4.6c-0.2-1.3-2.8,0-2.7-2.6c0-2.5,3-6.4,3.1-6.5c1.9-1,5.9-0.6,7.7-0.5c0-0.1,0.4-0.2,1.2-0.1
		c0.5-0.1,1.1-0.1,1.6,0.1C530.4,71.4,530.8,75.7,530.4,77.9z"/>
	<path class="st10" d="M528.6,66.7c-0.1,0.7-0.1,1.5-0.1,2.6c-1.6,3.7-2.8,6.3-3.6,7.9c-2.1,4.4-3.7,5.1-3.7-1.1
		c0-3,0.1-5.3,0.2-6.8l0.2-2.5L528.6,66.7z"/>
	<path class="st19" d="M529.9,59.7c0,0.1-0.1,0.2-0.1,0.3c-0.2-0.1-1,4-1.3,7.2c-3,1.7-6.4,1.5-7,1.3c0.2-4.7,0.5-11.7,4.1-13
		C528,54.8,530.6,57.2,529.9,59.7z"/>
	<path class="st8" d="M520.9,44.3c-9-1.1-10.4,13.2-4.3,18.4L520.9,44.3z"/>
	<path class="st10" d="M531.5,54.4c0.4,3.1,0.5,6.8-1.3,9.5h0c-4.7,7.8-20.5,2.8-16.1-6.4c0.6-1.2,1-2.6,1-3.8
		C515.2,40.8,530.3,43.5,531.5,54.4L531.5,54.4z"/>
	<path class="st20" d="M519.6,56.1c-0.4-0.4,0.3-1.1,0.7-0.7C520.7,55.8,520.1,56.5,519.6,56.1z"/>
	<path class="st20" d="M515.7,56.6c-0.4-0.4,0.3-1.1,0.7-0.7C516.8,56.4,516.1,57,515.7,56.6z"/>
	<path class="st20" d="M518,60.1c-0.8,0.2-2-0.1-1.2-1c0.7-0.7,0.8-2.7,0.8-2.7c0-0.2,0.4-0.2,0.4,0c0,0.1-0.1,2.1-0.9,2.9
		c-0.1,0.1-0.2,0.2-0.1,0.3c0.2,0.2,1.1,0.2,1.6-0.1c0.1-0.1,0.2,0,0.2,0C518.9,59.9,518.3,60,518,60.1L518,60.1z"/>
	<path class="st19" d="M531.5,54.4c0.4,3.1,0.5,6.8-1.3,9.5h0c0.5-1.3,0.7-3.3,0.5-5.9l-1.1-1.4c-7.5-0.1-11.9-3-13-8.7
		C521.6,41.2,530.9,47.2,531.5,54.4L531.5,54.4z"/>
	<path class="st8" d="M532.2,52.9l-2.7,2.9c-6.8-0.4-10.8-3.3-11.9-8.9C524.8,38,533.4,45.5,532.2,52.9z"/>
	<path class="st10" d="M533.8,55.3c0.4,3.6-4.1,4-4.4,0.4C529.1,52.1,533.6,51.7,533.8,55.3z"/>
	<path class="st20" d="M532.5,54.7c-0.9,0.5-1.1,1.7-1.1,1.7c-0.7,0.7-0.3-1.5,0.9-2c-0.4-0.6-1.6,0.1-1.6,0.2
		c-1.1-0.1,1.5-1.5,2-0.2C533.4,55.6,533,57.9,532.5,54.7L532.5,54.7z"/>
	<path class="st18" d="M532.5,57.4c0.2,0.5-0.6,0.7-0.8,0.2C531.6,57.2,532.3,56.9,532.5,57.4z"/>
	<path class="st14" d="M521.2,86.7c0,1.1-1.6,1.1-1.6,0C519.6,85.7,521.2,85.7,521.2,86.7z"/>
	<path class="st14" d="M519.6,92.3c0,1-1.6,1-1.6,0C518,91.3,519.6,91.3,519.6,92.3z"/>
	<path class="st14" d="M519.6,97.4c0,1.1-1.6,1.1-1.6,0C518,96.3,519.6,96.3,519.6,97.4z"/>
	<path class="st14" d="M492.3,183.5c0.1,1.7,0.2,3,0.3,4c-6,1.9-10.6,1.9-13.8,0c-0.2-0.8-0.4-2-0.7-3.4
		C478.2,184.1,483.9,186.9,492.3,183.5L492.3,183.5z"/>
	<path class="st14" d="M512.3,187.5c-6,1.9-10.6,1.9-13.8,0c-0.2-0.8-0.5-1.8-0.8-3.2c3.3,1.7,8.1,1.7,14.2,0
		C512,185.7,512.2,186.7,512.3,187.5z"/>
	<path class="st19" d="M517.7,118.4c-1.8,0.1,4.7-4.3,6.6-3.3c0,0.2-0.1,0.3-0.2,0.3C520.4,115.8,518,118.4,517.7,118.4z"/>
	<path class="st19" d="M520.4,118.5c-1.3-0.6,2.9-1.6,4.9-2.1c0.2,0,0.3,0.1,0.3,0.2c0,0.1-0.1,0.3-0.2,0.3
		C523.2,117.4,520.6,118.5,520.4,118.5L520.4,118.5z"/>
	<path class="st20" d="M521.1,54.6c0,0-0.1,0-0.1,0c-1.1-0.9-2.2-0.6-2.2-0.6c-0.1,0-0.2,0-0.2-0.2c0-0.1,0-0.2,0.1-0.2
		c0.1,0,1.3-0.3,2.6,0.7c0.1,0.1,0.1,0.2,0,0.3C521.2,54.6,521.2,54.6,521.1,54.6z"/>
	<path class="st20" d="M515.2,55.1c0,0-0.1,0-0.1,0c-0.1-0.1-0.1-0.2,0-0.3c0-0.1,0.7-1,1.7-0.9c0.1,0,0.2,0.1,0.2,0.2
		c0,0.1-0.1,0.2-0.2,0.2c-0.8,0-1.3,0.7-1.3,0.7C515.3,55.1,515.2,55.1,515.2,55.1z"/>
	<path class="st21" d="M519.5,62c-0.2,0-0.5-0.1-0.6-0.3c-0.3-0.4-0.1-1.1,0.5-1.5c0.6-0.5,1.3-0.5,1.6-0.1c0.3,0.4,0.1,1.1-0.5,1.5
		C520.2,61.9,519.8,62,519.5,62z M520.3,60.2c-0.2,0-0.4,0.1-0.7,0.3c-0.4,0.3-0.6,0.8-0.4,1c0.2,0.2,0.6,0.2,1-0.2
		c0.4-0.3,0.6-0.7,0.4-1C520.6,60.3,520.5,60.2,520.3,60.2z"/>
</g>
<g>
	<path class="st10" d="M967.1,455.5l-1.3-17c0-0.2,0.2-0.5,0.4-0.5c0.2,0.2,11.6-0.6,11,0.5c0.1,3.9-2.9,18.7-0.4,22.1
		c0.7,1.2,0.8,1.7,0.8,3.3l-0.9,0.2c0,0.2-0.1,0.7-0.4,0.7l-10.3-0.2c-0.2,0-0.5-0.8-0.5-1.1l-0.4,0.2
		C965.2,460.7,967.7,458.8,967.1,455.5L967.1,455.5z"/>
	<path class="st10" d="M917.1,460.4c3.9-0.7,10.7-1.7,9.8-7.4c-1.1-16.3-6.1-15.1,9-14.9c1,0,1.7,0.8,1.6,1.8
		c-0.4,5.2-2.4,16.9-1.2,22c0.3,1.4,0.3,3.2-1.4,3.3h-20.5C910.3,464.1,914.5,460.6,917.1,460.4L917.1,460.4z"/>
	<path class="st22" d="M937,463.1c-0.1,1-0.6,2.1-1.7,2.1c0,0-7.1,0-21.2,0c-5-1.9,2.5-8.5,12.3-8.5
		C933.3,458.7,937.2,453.3,937,463.1z"/>
	<path class="st22" d="M975.9,465.2h-9.1c-4.4-0.6-1.2-9.1,4.6-8.5C977.2,456,980.4,464.6,975.9,465.2L975.9,465.2z"/>
	<path class="st12" d="M919.1,462.4c-0.2,0-0.3-0.1-0.4-0.3c-0.8-2-2.3-2.6-2.4-2.7c-1.1-1.8,2.2-0.5,3.2,2.3
		C919.7,462,919.4,462.4,919.1,462.4z"/>
	<path class="st12" d="M922.6,461.9c-0.2,0-0.4-0.1-0.4-0.3c-0.7-2.3-2.8-3.4-2.8-3.4c-1-2.1,2.9,0.2,3.6,3.2
		C923.1,461.6,922.9,461.9,922.6,461.9L922.6,461.9z"/>
	<path class="st12" d="M926.6,461.4c-0.2,0-0.3-0.1-0.4-0.3c-0.9-2.4-2.8-3.7-2.8-3.7C922.2,454.3,928.6,460.6,926.6,461.4z"/>
	<path class="st12" d="M974.7,459.5c-2.5-1.5-6.4-0.2-6.4,0c-2.6-0.6,3.6-2.8,6.6-0.8C975.3,458.8,975.1,459.5,974.7,459.5
		L974.7,459.5z"/>
	<path class="st23" d="M912.6,463.1H937c-0.1,0.7-0.3,1.5-0.7,2.1H914C913,465.2,912.2,464.1,912.6,463.1z"/>
	<path class="st23" d="M975.9,465.2h-9.1c-1.1,0-2.1-1-2-2.1H978C978,464.3,977.1,465.2,975.9,465.2z"/>
	<path class="st8" d="M925.2,257.6c-1.5-4.2-0.5-7.2,3.1-9.3l4,2.1L925.2,257.6z"/>
	<path class="st9" d="M928.9,307.9c-20,15.2-45,11.8-59.2,1.2l-0.7-7.2c32.7,2.5,40.6-13.1,61.7-22.6
		C929.7,298,929.1,307.6,928.9,307.9z"/>
	<path class="st24" d="M979.1,445.2c0,1.4-0.1,2.9-0.1,4.3c-5.1,3.4-10.2,3.9-15.3,1.5c-3-16.1-9.3-50.8-15.7-92.6
		c-0.1-1.2-11.6,56-7.6,93.9c-5.7,1.5-11.1,1.2-16.2-0.7c-5.4-19.3-5.6-54.4-1.7-127.8c15.4-0.9,28.7-4.1,40-9.6
		C976.9,331,980.9,417.1,979.1,445.2L979.1,445.2z"/>
	<path class="st10" d="M932.7,278.5c-1-5.1-3.3-14.2,0.5-16.5c2.7-1.5,6.5,0.4,6.1,3.7c-0.3-0.1,0.4,9.2,1.4,11.7
		C948.7,278.4,927.3,289.7,932.7,278.5z"/>
	<path class="st19" d="M939.4,265.4c0,0.1,0,0.3,0,0.4c-0.2-0.1,0.1,5,0.7,8.7c-3.2,2.1-7.1,2.1-7.9,2.1c-0.6-5.4-2.6-12.1,1-14.6
		C935.7,260.5,939.3,262.4,939.4,265.4L939.4,265.4z"/>
	<path class="st25" d="M929.3,450.2c-9.5-44.3,0.2-102.6,1.6-103C931.7,347.6,923.2,406.1,929.3,450.2z"/>
	<path class="st25" d="M971.1,450.8c-7.7-48.7-16.2-105.2-15.2-106.1C957,344.9,965.8,402.5,971.1,450.8z"/>
	<path class="st10" d="M944.2,261.1c0,3.7-0.5,7.9-2.9,10.8c-0.1,0.1-0.2,0.2-0.3,0.3c-3.7,3.5-9.5,4.1-14.2,1.4
		c-3.8-2.5-5.5-6.4-4.3-9.8c0.8-2,2.6-4,2.8-6.2C926.4,244.2,944.1,246.8,944.2,261.1L944.2,261.1z"/>
	<path class="st20" d="M930.1,261.2c-0.4-0.6,0.5-1.2,0.9-0.6C931.4,261.1,930.5,261.8,930.1,261.2z"/>
	<path class="st20" d="M925.4,261.2c-0.4-0.6,0.5-1.2,0.9-0.6C926.7,261.1,925.8,261.8,925.4,261.2z"/>
	<path class="st19" d="M944.2,261.1c0,3.7-0.5,7.9-2.9,10.8c-0.1,0.1-0.2,0.2-0.3,0.3c2.9-5.8,2.1-7,0.8-11c-4.2-3-4.1-7.2-8.1-7.2
		c-2.7,0-5.1-0.2-7.3-0.5C930.9,244,944.3,249.6,944.2,261.1L944.2,261.1z"/>
	<path class="st20" d="M927.5,265.7c-0.9,0-2.1-0.4-1.1-1.4c1-0.7,1.3-3,1.3-3c0.9-0.9,0,2.5-1.1,3.3c-0.7,0.7,1,0.8,1.7,0.5
		C929.3,265.2,927.9,265.8,927.5,265.7L927.5,265.7z"/>
	<path class="st14" d="M970.7,339.2c-11.2,8.5-37.8,10.7-48.9,6.6c-3.8-1.6-4.3-14.3-3.8-26.7c0.7-16.6,4.7-28.6,12.4-39.7
		c0.1,0,1.5-0.7,2.4-0.8c0,1.5,0.3,5.9,8.1-1.1c0.1,0,2.3-0.3,3,0c0.8,0.6,9.2,6,9.4,6.9c0.7,2.7,3.5,9.3,6.6,16.9
		c3.6,9,7.3,18.2,8.9,26.6C969.3,331.5,972.9,335.9,970.7,339.2L970.7,339.2z"/>
	<path class="st8" d="M945.1,262.3c-3.1-1.4-4.2-3-6-5.7c-4.5-6.6-12-0.9-15-6c-5.2-8.4,7.3-12.2,12.9-4.7c4.4-0.2,7,3.2,7.8,10.2
		C945.3,258,945.4,260.1,945.1,262.3L945.1,262.3z"/>
	<path class="st10" d="M946.8,262.5c-0.1,4.2-5.4,4-5.2-0.2C941.7,258.1,947,258.4,946.8,262.5z"/>
	<path class="st20" d="M927.6,268.7c-0.7,0.1-1.4-0.3-0.7-0.5c0.1,0,2.1,0.6,4.3-1.4c0.1-0.1,0.2-0.1,0.3,0
		C930.8,268.3,928.2,268.7,927.6,268.7L927.6,268.7z"/>
	<path class="st9" d="M943.7,277.5c-2.6,4.4-13.9,11.2-13.4,1.8c0.1-0.1,1.5-0.7,2.4-0.8c0,0.2-0.5,6.7,8.1-1.1
		C940.8,277.5,943.1,277.1,943.7,277.5L943.7,277.5z"/>
	<path class="st25" d="M940.4,452.3c-5.7,1.5-11.1,1.2-16.2-0.7c-0.3-1-0.8-2.5-1.3-4.4c6.6,2.5,12.3,2.5,17.1,0
		C940.1,449,940.3,450.7,940.4,452.3z"/>
	<path class="st25" d="M979.1,445.2c0,1.4-0.1,2.9-0.1,4.3c-5.1,3.4-10.2,3.9-15.3,1.5c-0.2-0.9-0.4-2.1-0.7-3.7
		C968.5,448.9,973.8,448.2,979.1,445.2L979.1,445.2z"/>
	<path class="st9" d="M958.4,281.8c7.6,6,12.2,13.9,13.9,23.7c4,23-6.9,35.5-30.3,41.8c-0.5-1.9-1.8-3.2-3.9-3.8
		c7.5-5.7,12.1-12.1,14-19c2.8-10.3,1.5-25.2-3.9-31.1C951.1,287.1,954.4,283.2,958.4,281.8z"/>
	<path class="st11" d="M944.1,296.7c-1.7,1.7-3.6,3.2-5.4,4.2c3,7.1,4.8,20.3,2.8,22c-2.6,2.1-10.7,3.4-9-3.1
		c1.7-6.5,1.3-16.9,1.3-16.9c-0.4,0.1-0.7,0.1-1.1,0.1c-0.4,2.9-0.6,7.7-0.6,10.8c-0.1,3.8-3.4,3.2-4.8,1.9c-3-1.5-0.4-9.5,1.8-14.5
		c-3-1.4-5.3-4.1-6.6-7c-5.7-3.7-6.5-8.7-0.2-11c1.3-2.2,3.7-3.6,7.3-3.3c-0.9,5.1,0.6,10.5,4.5,16c0.4,0,0.9,0.1,1.3,0.4
		c1.2-2.4,4.8-9.8,7.3-17.9c0.8-2.6,5.3-2.4,7.8,0.3C970.1,280.7,947.4,293.4,944.1,296.7L944.1,296.7z"/>
	<path class="st26" d="M851.2,297.2l4.9-6.7l109.4,79.9l-4.9,6.7L851.2,297.2z"/>
	<path class="st27" d="M903.3,335.4l4.9-6.7l57.3,41.8l-4.9,6.7L903.3,335.4z"/>
	<path class="st28" d="M842.2,224.5c22.3,16,27.4,47.1,11.4,69.4c-16,22.3-47.1,27.4-69.4,11.4c-22.3-16-27.4-47.1-11.4-69.4
		C788.8,213.6,819.9,208.5,842.2,224.5z"/>
	<path class="st28" d="M765.7,279.7l3.4-3.4l55.6-55.6l3.3-3.3l3.3-3.3c4.7,1.6,9.1,4,13.3,7c0.2,0.1,0.4,0.3,0.6,0.4l-6,5.9
		L775.8,291l-3,3l-3,3c-3.2-4.3-5.6-9-7.4-13.9L765.7,279.7z"/>
	<path class="st28" d="M777.7,299.8l2.9-2.9l64.5-64.5l5.9-5.9c6,5.8,10.4,12.9,13.1,20.7l-3.3,3.3l-3.4,3.3l-55.3,55.3l-3.4,3.4
		l-3.3,3.3c-4.8-1.7-9.4-4-13.8-7.1c-2.5-1.8-4.8-3.8-7-6L777.7,299.8z"/>
	<path class="st29" d="M769.4,233.5c27.5-39,90-23.7,97,22.7c7.7,39-34.4,73.7-70.9,59.6C762.4,305,748.1,262.1,769.4,233.5
		L769.4,233.5z M769.1,276.4c3.8,15.8,17.3,29.1,33.1,32.8c44.4,11.2,76-44.4,43-76.8C812.5,200.2,757.4,232.1,769.1,276.4
		L769.1,276.4z"/>
	<path class="st10" d="M864,307.1L864,307.1c-2.9,0.3-1.1,3.2,1.1,1.5C866.2,307.8,865.1,306.2,864,307.1z"/>
	<path class="st10" d="M863.6,307.6c-2.7,1.5-3.5-2.2-0.9-1.7c-0.1,0,0.2-0.1,0.2-0.1C864.2,305.1,864.7,307,863.6,307.6
		L863.6,307.6z"/>
	<path class="st10" d="M862,306.5l-1,0.2c-1.4,0.2-1.2-1.8-0.1-2c0,0,0.3-0.1,1-0.2C863.4,304.3,863.2,306.4,862,306.5L862,306.5z"
		/>
	<path class="st10" d="M860.8,305.4l-1,0.2c-1.4,0.2-1.2-1.9,0-2c0,0,0.3-0.1,1-0.2C862.1,303.1,861.9,305.2,860.8,305.4
		L860.8,305.4z"/>
	<path class="st10" d="M934.1,344.3c0.6-0.2,3.3-0.2,4.1-0.7c1.1-0.7,4.4,2.6,3.9,3.8c-1.6,3.8-4.4,6.4-5,6.7
		c-0.5,0.8-5.9,7.3-5.4,3.8c1.2-1.4,2.3-2.8,3.2-4.4c0,0,0,0,0,0c-0.7,0.8-7.8,7.2-6.8,3.6c1.8-1.4,3.4-2.9,4.9-4.7c0,0,0,0,0,0
		c-0.9,0.5-8.4,6.2-7.1,2.8c2-1.3,3.9-2.7,5.6-4.3c0,0,0,0,0,0c-1,0.2-8.7,3.6-6.8,0.8c1.5-0.6,2.8-1.4,4.1-2.1
		c1.4-0.8,2.5-1.9,3.4-3.2c0,0,0,0,0,0l-2-1.4C931.3,344.5,932.7,344.5,934.1,344.3L934.1,344.3z"/>
	<path class="st20" d="M932.4,259.7c-1.1-1.2-2.7-1.1-2.8-1.1c-0.1,0-0.2-0.1-0.2-0.2c0-0.1,0.1-0.2,0.2-0.2c0.1,0,1.8-0.1,3.1,1.3
		c0.1,0.1,0.1,0.2,0,0.3c0,0-0.1,0.1-0.2,0.1C932.5,259.8,932.5,259.8,932.4,259.7L932.4,259.7z"/>
	<path class="st20" d="M925.1,259.1c-0.1-0.1-0.1-0.2,0-0.3c0,0,1.1-0.9,2.4-0.6c0.1,0,0.2,0.1,0.2,0.2c0,0.1-0.1,0.2-0.2,0.2
		c-1.1-0.2-2.1,0.6-2.1,0.6c0,0-0.1,0.1-0.1,0.1C925.2,259.2,925.2,259.2,925.1,259.1L925.1,259.1z"/>
	<path class="st20" d="M943,261.1c-0.1-0.4,1.2-1,2.1-0.5c0.5,0.2,1.1,2,0.4,3c-0.1,0-0.2-0.1-0.2-0.2c0.1-0.9,0.1-1.5-0.1-2
		c0,0,0,0-0.1,0c-0.1,0-1.4,0.3-1.7,2.2c0,0.1-0.1,0.2-0.2,0.2c0,0,0,0,0,0c-0.1,0-0.2-0.2-0.2-0.3c0.3-1.9,1.5-2.4,2-2.5
		c0,0,0,0-0.1-0.1C944.1,260.5,943.4,261.5,943,261.1L943,261.1z"/>
</g>
<g>
	<path class="st10" d="M366.5,464l-0.3-0.2c0,0.2-0.3,1.1-0.5,1.1l-10,0.2c-0.2,0-0.4-0.4-0.4-0.7l-0.9-0.2
		c-0.1-3.1,2.4-5.1,1.8-8.3c0,0-3.2-56.9-2.2-82.2c0.2-6.1,24.4-10.2,24.1-7c-1.4,15.8-6,45.6-13.5,89.3c-0.1,1.7,0.2,3.5,1,4.9
		C366.2,462.2,366.5,462.5,366.5,464L366.5,464z"/>
	<path class="st10" d="M409.6,465.5h-19.8c-0.9,0-1.6-0.8-1.6-1.7c2.2-10.1-7.8-61.7-7.8-97.2c0-0.9,21.5,1.6,22.4,12.3
		c1.1,12.9-0.7,37.8-5.3,74.7c-0.7,5.8,5.5,6.4,9.5,7.2c1.5,0.4,3.2,1,4,2.2C411.7,464.1,410.9,465.5,409.6,465.5L409.6,465.5z"/>
	<path class="st26" d="M351.8,390.5c0.5-32.1,1.1-50.7,1.9-55.7c32-6,48.6-2.2,49.9,11.4c3.6,38.8-0.3,84.4-1.9,99.8
		c-0.2,2.3-0.4,4.1-0.6,5.4c-3.8,1.1-8.3,1.3-13.5,0.6c-1-0.1-2.1-0.3-3.2-0.6c0-1.3-0.1-3.1-0.2-5.4c-0.5-13.7-2-50.7-5-76.7
		l-9.1,77.4l-0.6,4.9c-5.7,2.1-11.3,2.1-16.8-0.2c0-1.3-0.1-3.1-0.2-5.3C352.2,434.9,351.5,408.8,351.8,390.5L351.8,390.5z"/>
	<path class="st27" d="M396.7,449.3l-1.8-0.2c5.8-56.1,0.1-100.5,0-100.9l1.8-0.2C396.8,348.3,402.6,392.9,396.7,449.3z"/>
	<path class="st27" d="M362.2,449.6l-1.8-0.2c2.9-26.5,8.7-100.1,8.8-100.8l1.8,0.2C370.9,349.5,365.1,423.1,362.2,449.6
		L362.2,449.6z"/>
	<path class="st10" d="M382.1,302c38.5,3.1,57.4-32.8,10.4-40.2c-2.1-0.2-5.6-1-5.9,2.1c0,0.9,0.5,1.8,1.3,2.2
		c4.7,2.8,19.3,8.3,17.1,14.3c-1.5,4.1-15.4,4.7-22.7,5.5C371.8,285.7,371.5,301.8,382.1,302L382.1,302z"/>
	<path class="st18" d="M403.5,346.2c-0.9,1.5-2.6,2.9-5.1,4.1c-3.8,1.8-10.7,4.8-13.4,4.7c-2.7-0.1-2.5-3.2-4.7-3.5
		c-2.1-0.3-1.1,2.4-3.8,3.5c-2.7,1-12-0.2-24-6.3v-6.8L403.5,346.2z"/>
	<path class="st9" d="M395.8,283.8c9.1,0.5,12.4-7.4-6.7-16.9c-0.5-2.4,0.7-4.1,3.5-5.1c11.9,0,21.2,4.4,27.9,13.2
		c5.5,7.3,1.6,14.7-5,19.9c0,0,0,0,0,0c-5.5,4.4-13,7.2-18.7,6.9l-3.3-3.5l-12-12.9C384.9,284,389.8,283.5,395.8,283.8L395.8,283.8z
		"/>
	<path class="st14" d="M393.9,295.4c2.2,1.9,3.7,3.3,4.6,4.1c1.2,1.2,10.7-0.7,17-4.5c-5.5,4.4-13,7.2-18.7,6.9l-3.3-3.5
		L393.9,295.4z"/>
	<path class="st9" d="M362.8,300.2c2.9-6.2,6.4-11.5,10.7-14.5c2.7,0.1,7.8-0.9,10.6,0.4c16.9,7.2,18.1,39.4,19.5,60
		c-12.2,4.4-27.2,4.6-45.1,0.6c-1.8-0.4-3.5-0.8-5.4-1.4C352.7,336.2,355.8,315.3,362.8,300.2L362.8,300.2z"/>
	<path class="st11" d="M388,458.5c0.1-0.5,0.4-0.9,0.8-1.2c4.1,0.6,8,0.2,8.7,0c0.2,0,0.6-0.1,0.8,0c9.7,0.5,12.2,3.9,13,6.1
		c0,0,0,0,0,0c0.3,1-0.4,2-1.5,2h-20.6c-0.7,0-1.3-0.5-1.5-1.1c-0.1-0.3-0.2-0.6-0.2-1C387.4,461.6,387.6,459.7,388,458.5L388,458.5
		z"/>
	<path class="st11" d="M354,463.5C354,463.5,354,463.4,354,463.5c0.1-2.5,1.1-6.3,6.4-6.2c5.2,0,6.2,3.7,6.4,6.1c0,0,0,0,0,0
		c0.1,1.1-0.8,2-2,2H356C354.9,465.5,354,464.6,354,463.5L354,463.5z"/>
	<path class="st13" d="M411.3,463.4c0.3,1-0.4,2-1.5,2h-21.6c-0.3-0.7-0.6-1.3-0.6-2.1L411.3,463.4
		C411.3,463.4,411.3,463.4,411.3,463.4L411.3,463.4z"/>
	<path class="st13" d="M354,463.5C354,463.5,354,463.4,354,463.5l12.7-0.1v0c0.1,1.1-0.8,2-2,2H356C354.9,465.5,354,464.6,354,463.5
		L354,463.5z"/>
	<path class="st10" d="M388.2,266c-1.6-0.3-2.6-0.9-3-1.8c-1-2.2-2.8-4.6-5.2-7.3c0.8-0.7,2-0.8,3.4-0.3c1.4,0.4,3.5,2.1,6.3,4.9
		L388.2,266z"/>
	<path class="st10" d="M363.6,359.2c-0.9,0.7-2.2-1.1-3.2-1.3c0.2,1.6,0.8,3.1,0.8,3.1c1.1,1.6,2.4,3.2,3.7,4.6
		c0.3,2.9-4.4-2.8-5.1-3.3c0,0,0,0,0,0c0.8,1.9,1.7,3.7,2.7,5.5c-0.3,3.2-4-4.2-4.5-5c0,0,0,0,0,0c0.4,1.9,1.1,3.8,1.9,5.5
		c-0.7,3.1-3.7-4.6-3.9-5.5c0,0,0,0,0,0c0.1,1.5,0.3,3.1,0.7,4.6c-1.1,2.9-2.6-4.2-2.7-5.1c-0.3-0.5-1.5-3.6-1.2-7.1
		c0.1-1.1,4.2-2.3,4.8-1.4c0.4,0.7,2.4,1.8,2.8,2.1C361.3,356.8,364,358.1,363.6,359.2L363.6,359.2z"/>
	<path class="st10" d="M349.8,301.2c7-12,16.8-14,20.1-14.5c0.5-0.1,1.6-0.4,3.4-1.1c0,0.9-2.4,2-2.4,2.9
		c-1.5,14.6-13.2,23.1-15.6,37.8c-2.3,13.8,0.8,24.1,1.9,27c0,0,0,0,0,0c0.1,0.3,0.2,0.6,0.3,0.8l-4.6,2.1c-0.4-0.4-0.7-0.8-1-1.2
		C342.2,342.9,336.6,323.8,349.8,301.2L349.8,301.2z"/>
	<path class="st14" d="M362.8,300.2l5.5,3.4c-5.5,9.3-8.6,16.3-9.5,21.1c-1.1,6.4-1.4,15.2-0.4,22c-1.8-0.4-3.5-0.8-5.4-1.4
		C352.7,336.2,355.8,315.3,362.8,300.2z"/>
	<path class="st9" d="M348.8,300.8c7-12,21.3-14.7,24.6-15.1c0.4,0.9-0.2,3.1,0,3.9c2.3,9.1-7.9,14.5-14.6,28.5
		c-7.1,15-1.8,34.5-1.6,35.2c0,0,0,0,0,0c-2.2,0.1-3.9,0.7-5.3,1.7C342.2,342.9,335.6,323.3,348.8,300.8z"/>
	<path class="st11" d="M377.2,258.4l3.5-2.6c3.7,1.4,5.2,4.2,4.4,8.4L377.2,258.4z"/>
	<path class="st10" d="M373.4,285.7c0.2-0.7,0.2-1.7,0.2-2.9c0-3.6-0.5-8.6-0.7-8.5c0-0.1,0-0.1-0.1-0.2c0-0.1,0-0.1,0-0.2
		c-0.2-1.3,0.2-2.3,0.9-3c0,0,0.1,0,0.1-0.1c1.1-1.1,2.9-1.6,4.4-1.1c1,0.3,1.9,1.1,2.3,2.4c0,0.1,0.1,0.2,0.1,0.3
		c0,0,0.1,0.2,0.2,0.7c0.3,1.8,0.9,6.5,0.8,10.3c0,0.6-0.1,1.3-0.2,1.9C384.7,290.5,366,287.9,373.4,285.7L373.4,285.7z"/>
	<path class="st19" d="M373.7,270.9C373.8,270.9,373.8,270.8,373.7,270.9c0.6-0.6,1.3-1.1,2.1-1.3c0.8-0.2,1.6-0.2,2.4,0.2
		c1.1,0.4,1.9,1.3,2.3,2.4c0,0.1,0.1,0.2,0.1,0.3c0,0.1,0.1,0.3,0.2,0.7c0.3,1.8,0.9,6.5,0.8,10.3c-0.7,0.2-4.5,0.8-7.9-0.7
		c0-3.6-0.5-8.6-0.7-8.5c0-0.1,0-0.1-0.1-0.2c0-0.1,0-0.1,0-0.2C372.7,272.8,373.1,271.7,373.7,270.9L373.7,270.9z"/>
	<path class="st10" d="M383.3,260.5c1.5,2.2,2,5.5,4.2,7.5c6.5,6.9-3.3,16.6-11.5,14.3c-1.5-0.3-2.8-0.9-3.9-1.8h0
		c-2.8-2.3-4-6.3-4.6-9.9C365.6,261,376.4,251.2,383.3,260.5L383.3,260.5z"/>
	<path class="st20" d="M380.3,268.6c-0.3-0.1-0.4-0.5-0.2-0.7c0.1-0.3,0.5-0.4,0.7-0.2c0.3,0.2,0.4,0.5,0.2,0.7
		C380.9,268.7,380.6,268.8,380.3,268.6L380.3,268.6z"/>
	<path class="st20" d="M384.8,267.9c-0.3-0.2-0.4-0.5-0.2-0.7c0.2-0.2,0.5-0.3,0.7-0.2c0.2,0.1,0.4,0.5,0.2,0.7
		C385.4,267.9,385.1,268,384.8,267.9L384.8,267.9z"/>
	<path class="st19" d="M368.8,262.3c0.5-1.1,1.2-2,2-2.8c0,0,0.1-0.1,0.1-0.1c1.1-1.1,2.4-1.8,4-2.2c0.6-0.1,1.3-0.2,1.9-0.2
		c0.9,0,1.7,0.1,2.4,0.3c0,0,0.1,0,0.1,0c0.3,0.1,0.6,0.3,0.9,0.4c0.5,0.2,0.9,0.5,1.3,0.9c0.5,0.4,0.9,0.8,1.3,1.3
		c0.2,0.2,0.3,0.5,0.5,0.7c-1.3,0.6-2.5,0.8-3.7,0.7c-1.3,2.4-3.9,3-7.7,1.9c1,2.6,0.3,5.1-2,7.4l-0.5,3.8c0.8,3,1.9,5.2,3.3,6.6
		c-0.2-0.2-0.5-0.3-0.7-0.5h0c-1-0.8-1.8-1.8-2.4-3c-0.2-0.4-0.4-0.8-0.6-1.2c-0.2-0.6-0.5-1.2-0.7-1.9c-0.1-0.2-0.1-0.4-0.2-0.6
		c0-0.2-0.1-0.3-0.1-0.5c-0.1-0.3-0.2-0.5-0.2-0.8c0,0,0-0.1,0-0.1c-0.1-0.3-0.1-0.5-0.2-0.8c-0.1-0.3-0.1-0.6-0.2-0.9
		C367.1,267.5,367.6,264.6,368.8,262.3L368.8,262.3z"/>
	<path class="st11" d="M369.3,261.4c2.8,1.3,2.8,4,0.2,8.3l-2.6,2.2C362.9,265.6,363.7,262.1,369.3,261.4z"/>
	<path class="st20" d="M383.2,272.2c-0.1-0.1-0.2-0.2-0.1-0.3c0-0.1,0.2-0.2,0.2-0.1c0.7,0.2,1.6-0.1,1.8-0.4
		c0.1-0.1-0.1-0.2-0.2-0.3c-1.1-0.6-1.9-2.8-2-2.9c0-0.1,0-0.2,0.1-0.2c0.1-0.1,0.2,0,0.2,0.1c0,0,0.7,2.1,1.8,2.7
		c0.6,0.3,0.5,0.7,0.4,0.8c-0.2,0.4-1,0.7-1.7,0.7C383.6,272.3,383.4,272.3,383.2,272.2L383.2,272.2z"/>
	<path class="st10" d="M367.1,268.8c1.4-0.3,2.8,0.8,3.1,2.5c0.3,1.7-0.5,3.3-1.8,3.6c-1.4,0.3-2.8-0.9-3.1-2.5
		C364.9,270.7,365.7,269.1,367.1,268.8z"/>
	<path class="st20" d="M366.4,273.1c-0.4-1.4-0.4-2.3,0.2-2.8c0.7-0.7,2-0.2,2-0.2c0.1,0,0.2,0.2,0.1,0.2c0,0.1-0.2,0.2-0.2,0.1
		c0,0-1.1-0.4-1.6,0.1c-0.4,0.4-0.4,1.2-0.1,2.4c0,0.1,0,0.2-0.1,0.2c0,0,0,0-0.1,0C366.5,273.2,366.4,273.2,366.4,273.1
		L366.4,273.1z"/>
	<path class="st20" d="M368.3,272.8c0,0-0.7-1.5-2-1.5c-0.1,0-0.2-0.1-0.2-0.2c0-0.1,0.1-0.2,0.2-0.2c1.5,0.1,2.3,1.7,2.3,1.8
		c0.1,0.1,0,0.2-0.1,0.3c0,0-0.1,0-0.1,0C368.4,272.9,368.3,272.9,368.3,272.8L368.3,272.8z"/>
	<path class="st11" d="M369.2,255.2c0.2-0.2,0.5-0.5,0.7-0.7c1.9-1.5,3.3-3.4,4.2-5.9c1.2,1.5,2,3.1,2.4,4.9c1.2-1.4,2.3-2.9,3-4.4
		c0.8,1.1,1.3,2.3,1.6,3.8c1.4-1.3,2.8-2,4.4-2.3c2.7,7.6-3.4,9-6.2,9.2c-2.7,3.1-7.5,3.4-10.2,2.2l-3.1,4.1
		C361.1,258.3,366.6,255.9,369.2,255.2z"/>
	<path class="st27" d="M384.5,380.4c1.1,7.2,2.4,51.1,2.9,66.3c0.1,2.2,0.1,3.9,0.1,5.2c-1-0.1-2.1-0.3-3.2-0.6
		c0-1.3-0.1-3.1-0.2-5.4c-0.5-13.7-2-50.7-5-76.7C381.8,370.9,383.6,374.6,384.5,380.4z"/>
	<path class="st27" d="M387.4,446.7c6.2,1.2,10.9,1,14.2-0.8c-0.2,2.3-0.4,4.1-0.6,5.4c-3.8,1.1-8.3,1.3-13.5,0.6
		c-1-0.1-2.1-0.3-3.2-0.6c0-1.3-0.1-3.1-0.2-5.4C385.3,446.3,386.4,446.6,387.4,446.7z"/>
	<path class="st27" d="M352.5,446.1c5.7,2.7,11.5,2.9,17.5,0.6l-0.6,4.9c-5.7,2.1-11.3,2.1-16.8-0.2
		C352.7,450.1,352.6,448.3,352.5,446.1z"/>
	<path class="st18" d="M381.4,285.4c1-0.8,2.1-1.1,3.4-0.9c1.8,3,1.3,5.2-1.4,6.8c-0.4-1.4-1.3-2.2-2.7-2.4c0.4,1.3,0.5,2.4,0.4,3.2
		c-3.7-0.1-6.7-1.2-9-3.1c-0.8-0.7-1.5-1.5-2.1-2.5c1-0.7,2.2-0.9,3.4-0.7c2.1,1.7,4.2,2.4,6.3,2.1
		C381.4,287.6,382,286.8,381.4,285.4L381.4,285.4z"/>
	<path class="st21" d="M382.9,276.1c-0.5,0-1-0.3-1.3-0.8c-0.4-0.7-0.3-1.5,0.2-1.8c0.5-0.3,1.3,0,1.7,0.7c0.4,0.7,0.3,1.5-0.2,1.8
		C383.1,276.1,383,276.1,382.9,276.1z M381.9,275.1c0.3,0.5,0.8,0.8,1.1,0.6c0.3-0.2,0.4-0.8,0.1-1.3c-0.3-0.5-0.8-0.8-1.1-0.6
		C381.7,274,381.6,274.6,381.9,275.1z"/>
	<path class="st20" d="M378.4,267.8c-0.1,0-0.2-0.1-0.2-0.2c0.1-2.4,2-3.3,2-3.3c0.1-0.1,0.2,0,0.2,0.1c0,0.1,0,0.2-0.1,0.2
		c-0.1,0-1.7,0.8-1.8,3C378.5,267.7,378.5,267.8,378.4,267.8L378.4,267.8z"/>
	<path class="st20" d="M385.2,266c-0.1,0-0.1,0-0.2-0.1c0,0-1.1-1.3-2.5-1.3c-0.1,0-0.2-0.1-0.2-0.2c0-0.1,0.1-0.2,0.2-0.2
		c1.6,0,2.8,1.3,2.8,1.4c0.1,0.1,0.1,0.2,0,0.3C385.3,266,385.3,266,385.2,266L385.2,266z"/>
</g>
<g>
	<path class="st15" d="M572.2,314.1h-29.7c-5.5-32.7-1.5-49.9,12.2-51.7C567.4,265.4,573.3,282.6,572.2,314.1z"/>
	<path class="st30" d="M619.7,387.8l-28.9,10.6c-0.5,0.2-1-0.1-1.2-0.6c0.3-0.6-9.8-23.5-7.7-23.4c0-0.1,29-10.6,29-10.7
		c0.5-0.2,1,0.1,1.2,0.6l8.2,22.2C620.4,387,620.2,387.6,619.7,387.8L619.7,387.8z"/>
	<path class="st5" d="M619.7,387.8l-28.9,10.6c-0.5,0.2-1-0.1-1.2-0.6c0.2-0.6-9.8-23.5-7.8-23.4c0.1,0,0.1,0,0.1,0
		c6.2,14.6,18.8,18.4,37.9,11.4l0.1,0.1C620.3,386.4,620.6,387.4,619.7,387.8z"/>
	<path class="st31" d="M618.6,386.2l-27.2,10l-7.6-20.6l27.2-10L618.6,386.2z"/>
	<path class="st32" d="M618.6,386.2l-27.2,10l-6.2-16.7C590,385.1,600.1,392.5,618.6,386.2L618.6,386.2z"/>
	<path class="st7" d="M618.2,379.3c0.6,1.6,0.9,2.4,0.9,2.4c0.4,0.9-1.2,1.1-1.7,1.3c-0.4,0.2-1.1,0.4-1.3-0.2
		c-3.2-8.7-4.8-13.1-4.8-13.1c-0.2-0.6,0.4-0.9,0.9-1l1.3-0.5c0.3-0.1,0.7,0,0.8,0.4l0.9,2.4c0.6-0.1,2-1.1,2.3-0.1
		c0.7,1.7,1.9,5.2,2.6,7C620.4,378.9,618.7,379,618.2,379.3L618.2,379.3z M617.7,375.3c0.5-0.2,0.2-1-0.3-0.8
		C616.9,374.7,617.2,375.5,617.7,375.3z"/>
	<path class="st33" d="M618.7,382.6c-0.6,0.1-2.3,1.3-2.6,0.3c0,0-1.6-4.4-4.8-13.1c-0.1-0.3,0.1-0.7,0.4-0.8c2.2,7.3,5,10.3,8.3,9
		c0.4,0.9-1.3,1.1-1.8,1.4l0.9,2.4C619.3,382.1,619.1,382.5,618.7,382.6L618.7,382.6z"/>
	<path class="st34" d="M618.8,374.5c-0.9-2.6-2.1-3.7-3.6-3.4c0.6-0.1,2-1.1,2.3-0.1C617.5,371,617.9,372.1,618.8,374.5L618.8,374.5
		z"/>
	<path class="st19" d="M611.7,326.9c2.3-0.3,4.2-0.5,5.7-0.4l-2.5,5c-3.3-1.6-5-2.5-5.2-2.9C609.6,328.3,610.3,327.7,611.7,326.9
		L611.7,326.9z"/>
	<path class="st10" d="M547,463.6c-0.2,0.8-0.9,1.5-1.8,1.5h-9c-1.3,0-2.2-1.3-1.8-2.5c0.7-2.3,2.3-4.6,2-7.2c-0.1-4.9,0-14.7,0-18
		h10.1c-0.2,2.8-1.1,13.7-1.4,18.3C544.7,458.7,547.1,460.9,547,463.6z"/>
	<path class="st10" d="M560.2,309.9c-2.4,6-4,15.6,3.1,18.9c10.8,4.3,23.2,3.6,34.3,0.4c0.6-0.2,1.2-0.4,1.8-0.6c0,0,0.1,0,0.1,0
		l1.2,0c2.9-0.2,4.1,4,1.5,5.3c-0.3,0.2-0.8,0.5-1.1,0.7c-12.7,6.7-35.2,11.7-48,3.1c-10.4-7.1-11.4-21.5-8.3-32.7
		C548,294.4,563.7,299.4,560.2,309.9L560.2,309.9z"/>
	<path class="st10" d="M595.5,463.6c-0.1,0.8-0.7,1.5-1.6,1.5h-22.4c-0.2-2.3,0.5-4.4,0.4-6.9c0.1-6.6-1.3-14.7-1.7-20.7H583
		c-0.2,2.6-2,13.3-2,17.9c1.4,5.2,8.8,3.6,12.3,5.6C594.3,461.6,595.6,462.4,595.5,463.6L595.5,463.6z"/>
	<path class="st26" d="M595.6,463.6c0,0.8-0.7,1.5-1.5,1.5h-22.7c-0.3-2.3,0.3-4.6,0.4-6.9c0-0.6,0-1.2,0-1.7
		c7.3,8.8,20.4,0.6,23.6,6.4C595.6,463.2,595.6,463.4,595.6,463.6z"/>
	<path class="st26" d="M547.1,463.6c-0.2,0.8-1,1.5-1.9,1.5h-9c-2.6-0.2-2-3-1-4.7c0,0,5-4.1,10.9,0
		C546.7,461.4,547.2,462.5,547.1,463.6L547.1,463.6z"/>
	<path class="st10" d="M562.9,296.4c11.3,2.4,18.1,13.5,21,23.9c1.9,6.5,2.2,13.3,3.7,19.9c1.8,8.2,4.1,16.4,7.3,24.2
		c1.5,3.5-2.6,6.5-5.2,3.6c-5.3-6.7-9.5-14.2-13-22c-2.8-6.1-4.7-12.6-6.9-19c-2-5.1-4.5-10.4-9-13.4c-0.4-0.3-0.8-0.5-1.2-0.6
		c0.2,0,0.3,0.1,0.5,0.1C549.4,311.4,552,294.7,562.9,296.4L562.9,296.4z"/>
	<path class="st12" d="M594.1,362.3c-1.5,1.8-3.4,3.1-5.7,4c-3.9-5.1-9-11.6-12-17.4c-4.8-13.5-10.1-40.8-12.8-52.6
		C587.3,300.2,586.8,343.3,594.1,362.3z"/>
	<path class="st35" d="M588,359.9c-0.1,1.4-1.2,2.2-2.4,2.8c-1.1-1.5-2.6-3.5-4-5.5l-2.7-43.8c5.1,6.2,8,18.1,8.6,35.8
		C588.1,354.2,588.2,357.8,588,359.9z"/>
	<path class="st10" d="M602.7,369.1c-0.2,0.4-0.6,0.5-0.9,0.3c-1-0.5-2-0.8-3.1-1.1l-8,3c-0.9-0.8-1.4-2.1-1.4-3.9
		c0-1.6,3.9-3.8,5.3-3.3c1.3,0.4,2.9,1.4,3.4,1.8C599.1,366.2,603.2,367.7,602.7,369.1L602.7,369.1z"/>
	<path class="st11" d="M536.5,380.9c-1.3-19.7,0.7-34.1,6-43.3c12.2,3.2,25.2,3.9,39,2.2c9.7,50.4,3.4,97.9,1.1,114.7
		c-3.3,2.7-10.2,0.9-13.5-0.2c2.6-35.6-7.5-82.1-7.5-80.8c-3,32.1-12,65.4-15.1,81.9c-3.4,1.5-7.5,1.3-12.4-0.5
		C536.9,438,538.2,409.5,536.5,380.9L536.5,380.9z"/>
	<path class="st19" d="M679.7,299.5c-10.5,12.7-16.9,30.2-33.8,35.6c-10.3,3.1-21.2,1.5-30.8-2.8c-2.9-1.3-1.8-5.9,1.3-5.8
		c12.7,0.4,28.1-1.5,33.5-14.6c4.8-8.2,10.4-16.1,17.2-22.8C674.3,281.6,685.6,291.2,679.7,299.5L679.7,299.5z"/>
	<path class="st11" d="M557,353c-2.3,5-10.2,10.9-10.5,11.4l-4-4.1c5.3-3,8.6-6.6,10-11L557,353z"/>
	<path class="st36" d="M536.4,452.8c1.6-14,4.7-44.2,3.6-63.4c-0.7-19.4,2.1-29.2,2.1-29.3c0.4-0.7,7.1-3.6,10-11
		c0.2-0.6,1.1-0.2,0.8,0.3c-2.5,6.8-8.9,10.5-10,11.2C538.6,376.8,543.2,435.2,536.4,452.8L536.4,452.8z"/>
	<path class="st26" d="M583.3,349.2c-10.7,6.7-36.3,3.2-44.9,0.7c-2-5.3,3.2-12.3,2.2-19c-2.5-15.6,5.4-31.1,14.7-34.4
		c0,0,0-0.8,0-0.8l8.3,0.5c4.2,3,7.9,6.4,12,12.1c6.2,8.7,1.5,13,3.3,21.3C579.2,333.6,585.8,347.3,583.3,349.2z"/>
	<path class="st27" d="M583.3,349.2c-9,4.7-20.9,4.3-30.5,3.3l3.9-2.3c9.6,0.9,18.6-0.2,27.2-3.6C584,347.9,583.9,348.9,583.3,349.2
		z"/>
	<path class="st12" d="M558,337.6c-0.4,6.3-2.8,23.3-3.5,25.5c-9.2,1.7-16.9,0.6-23.2-3.2c0.3-0.8,4.4-24.1,5.2-34.6
		c0.9-16.1,14-28,18.7-28.8C555.3,299.7,559.4,326.4,558,337.6L558,337.6z"/>
	<path class="st11" d="M666.4,319.3c-5.5,25.3-39.1,19.7-49.7,13.7c1.3-1.7,1.5-3.8,0.8-6.5c37.1-1.1,32.3-33.1,51.9-39.7
		C670.3,299,669.3,309.8,666.4,319.3z"/>
	<path class="st12" d="M563.6,296.2c6.8,3.7,11.3,10.2,13.5,19.6c1.8,7.9-0.6,14.3,1,20.9c2.2,9.5,3.3,17.8,3.3,24.7
		c2.2,0.1,4.1-0.6,5.7-2.1C587.4,323.6,579.6,302.6,563.6,296.2z"/>
	<path class="st10" d="M690.1,460.7c2.4-3.1-0.4-17.3-0.3-21c0-0.2,0.2-0.5,0.4-0.5c0.2,0.2,11.7-0.6,11.2,0.5
		c0.1,3.7-2.9,17.9-0.4,21c0.7,1.1,0.8,1.6,0.8,3.1l-0.9,0.2c0,0.2-0.1,0.7-0.4,0.7l-10.5-0.2c-0.2,0-0.6-0.8-0.6-1l-0.3,0.2
		C689.1,462.2,689.4,461.9,690.1,460.7L690.1,460.7z"/>
	<path class="st10" d="M642.5,462.7c0.8-1.1,2.5-1.8,4.2-2.1c4-0.8,10.6-1.2,10-7.1c-1.3-15.9-6-14.3,9.1-14.2c1,0,1.8,0.8,1.7,1.7
		c-0.4,5-2.4,16.1-1.3,21c0.3,1.4,0.3,3.1-1.5,3.2h-20.8C642.5,465.1,641.7,463.7,642.5,462.7L642.5,462.7z"/>
	<path class="st22" d="M666.9,463.1c-0.1,1-0.6,2-1.8,2c0,0-7.2,0-21.6,0c-5.4-1.5,3.3-8.6,13-8c0.8,0.2,3.6,0.7,7.9,0.2
		C666.8,457,667,461.1,666.9,463.1L666.9,463.1z"/>
	<path class="st22" d="M700.1,465.1h-9.2c-4.5-0.5-1.3-8.7,4.6-8.1C701.5,456.3,704.6,464.7,700.1,465.1z"/>
	<path class="st35" d="M558,337.6c-0.2,2.8-0.6,5.9-1,9c-18.1-3.7-20.5-21.1-20.5-21.3c0.4-3.4,1.1-6.4,2-9.1L558,337.6z"/>
	<path class="st12" d="M648.7,462.4c-0.2,0-0.3-0.1-0.4-0.2c-0.8-1.9-2.4-2.5-2.4-2.5c-0.5-0.2-0.2-1.1,0.3-0.8c0.1,0,1.9,0.7,2.9,3
		C649.2,462.1,649,462.4,648.7,462.4z"/>
	<path class="st12" d="M652.3,462c-0.2,0-0.4-0.1-0.4-0.3c-0.7-2.2-2.8-3.2-2.8-3.3c-0.5-0.2-0.1-1.1,0.4-0.8c0.1,0,2.4,1.2,3.3,3.7
		C652.8,461.7,652.6,462,652.3,462L652.3,462z"/>
	<path class="st12" d="M656.3,461.5c-0.2,0-0.3-0.1-0.4-0.3c-0.9-2.3-2.8-3.6-2.9-3.6c-0.5-0.3,0-1.1,0.5-0.8c0.1,0.1,2.3,1.4,3.2,4
		C656.9,461.2,656.6,461.5,656.3,461.5z"/>
	<path class="st36" d="M666.4,319.3c-3,12.5-12.8,18.4-24.3,18.8c4.5-2,7.4-6.9,8.7-14.7c1.3-7.8,4.5-15.7,9.6-23.8L666.4,319.3z"/>
	<path class="st12" d="M698.8,459.6c-3.5-1.9-6.7,0.6-7.1-0.3c-0.1-0.2,0-0.5,0.2-0.6c0.2-0.1,4-1.6,7.1,0
		C699.4,459,699.3,459.6,698.8,459.6L698.8,459.6z"/>
	<path class="st23" d="M642,463.1h24.9c-0.1,0.7-0.3,1.4-0.7,2h-22.7C642.4,465.1,641.6,464.1,642,463.1L642,463.1z"/>
	<path class="st23" d="M700.1,465.1h-9.2c-1.2,0-2.1-0.9-2-2h13.3C702.2,464.2,701.3,465.1,700.1,465.1z"/>
	<path class="st37" d="M669.5,263.1c-0.8-4.4,0.8-7.4,4.6-8.8l3.7,2.8L669.5,263.1z"/>
	<path class="st9" d="M702.8,454.1c-6.6,1.5-11.6,1.4-14.9-0.2c-2.6-15.5-10-58.7-12.5-88.2c-0.1,1.7-5.5,71.3-6.5,88.2
		c-3.5,1.1-10.5,2.4-14.5-0.2c-1.8-17.8-7.5-76.6,1.1-124.7c15.6,1.6,29.6,0.7,41.8-2.7C702.4,341.5,703.7,435.8,702.8,454.1
		L702.8,454.1z"/>
	<path class="st14" d="M658.4,383.3c0.7-18,3.3-28.8,2.1-29.2c-3.9,21-5.9,64.1-2.3,98.1C657.9,425.8,656.9,399.2,658.4,383.3z"/>
	<path class="st14" d="M695.1,452.1c-3.1-53-11.4-102-10.6-102.7C685.6,349.6,693.9,399.4,695.1,452.1L695.1,452.1z"/>
	<path class="st10" d="M673.5,285.4c-0.5-4.5,0.2-10.9,0.8-13.6c0.3-1.4,1.3-2.5,2.5-2.9c3-1,6.4,1.5,5.5,4.8
		c-0.3-0.2-1.1,9.3-0.5,11.9C689.6,288,666.2,295.7,673.5,285.4z"/>
	<path class="st19" d="M682.4,273.4c0,0.1,0,0.3-0.1,0.4c-0.2-0.1-0.7,5.1-0.7,8.9c-3.6,1.6-7.5,0.9-8.3,0.7
		c0.2-5.1-0.3-13.2,3.5-14.4C679.6,267.8,682.9,270.3,682.4,273.4L682.4,273.4z"/>
	<path class="st10" d="M688,269.9c-0.6,3.7-1.9,7.9-4.8,10.3c-1.2,1-2.6,1.6-4.2,1.9c-8.6,2.4-18.8-7.7-12.1-15
		c2.5-2.4,2.9-6.1,5-8.6c2.9-4.2,9.1-3.9,12.5-0.6C687.5,261.1,688.5,265.3,688,269.9z"/>
	<path class="st38" d="M670.2,274.2l4.9-2.5C675.5,274.6,672.4,276.5,670.2,274.2z"/>
	<path class="st20" d="M673.9,267.6c-0.3-0.7,0.7-1.1,1-0.5C675.2,267.7,674.2,268.2,673.9,267.6z"/>
	<path class="st20" d="M669.1,266.8c-0.3-0.7,0.7-1.2,1-0.5C670.5,266.9,669.5,267.4,669.1,266.8z"/>
	<path class="st19" d="M688,269.9c-0.6,3.7-1.9,7.9-4.8,10.3c-0.2,0.2-0.5,0.4-0.8,0.6c1.5-1.5,2.7-3.8,3.5-6.9l-0.5-4
		c-2.4-2.4-3.1-5-2-7.8c-4,1.1-6.7,0.5-8.1-2c-1.3,0.2-2.6-0.1-3.9-0.7c2.7-4.7,9.4-4.9,13-1.3C687.5,261.1,688.5,265.3,688,269.9
		L688,269.9z"/>
	<path class="st10" d="M705.7,355.1c-0.5,1.3-0.7,2.5-0.5,3.6l-2.2,0.9l-4.1-1.5c0.1-1,0.1-2.1,0-3.2
		C703.9,353.7,706.2,353.8,705.7,355.1L705.7,355.1z"/>
	<path class="st20" d="M670.2,274.4c-0.2,0-0.3-0.3-0.1-0.4c0.1,0.1,5.1-2.9,5.1-2.4c0.1,0.1,0,0.2-0.1,0.3
		C675,271.9,670.3,274.4,670.2,274.4L670.2,274.4z"/>
	<path class="st20" d="M670.9,271.6c-1,0-2.6-0.7-1.3-1.6c1.1-0.6,1.9-2.8,1.9-2.8c0.1-0.3,0.5-0.1,0.4,0.1c0,0.1-0.8,2.4-2,3
		c-0.8,0.5,0.9,1,1.6,0.7c0.1,0,0.2,0,0.3,0.2C671.7,271.7,671.2,271.6,670.9,271.6z"/>
	<path class="st11" d="M700.6,352.9c-1.3,1.1-3.2,2-5.5,2.6c-13.4,3.7-40.7,0.5-43-4.2c-1.8-3.8-1.9-15.5,0.7-27.9
		c3.3-17.3,8.7-29.5,20.7-37.9c-0.1,0.2-1.6,6.6,8.3,0.3l3,0.5C685.9,302.8,708.2,345.3,700.6,352.9L700.6,352.9z"/>
	<path class="st37" d="M689.5,265c0.1,2-0.1,4-0.7,6.2c-5.5-3.7-5.3-9-3.3-10.6c-3.7,2-7.4,1-9.7-1.3c-2.9,0-6.7-1-8.3-5.5
		c1.8-0.8,3.8-1,5.9-0.6c0.2-1.2,0.7-2.3,1.7-3.3c0.7,1.3,1.6,2.4,2.5,3.5c-0.1-1.7,0.3-3.3,1.1-4.9c0.8,2.4,4.5,3.6,6.5,5.9
		l0.1-0.1C691.5,255.5,693,259.1,689.5,265L689.5,265z"/>
	<path class="st10" d="M690.4,271.7c-1,4.2-6,3.2-5.2-1.1C686.2,266.4,691.2,267.5,690.4,271.7z"/>
	<path class="st20" d="M689,272.6c-0.1,0-0.2-0.2-0.2-0.3c0.8-2.3-0.2-3.2-1.7-2.6c-0.2,0.1-0.4-0.3-0.2-0.4
		c1.8-0.7,3.3,0.4,2.3,3.1C689.2,272.5,689.1,272.6,689,272.6L689,272.6z"/>
	<path class="st20" d="M687.1,272.3c-0.7,0,0.6-2.1,2.2-2.2c0.1,0,0.2,0.1,0.2,0.2c0,0.1-0.1,0.2-0.2,0.2
		C687.6,270.7,687.5,272.2,687.1,272.3L687.1,272.3z"/>
	<path class="st14" d="M668.9,453.9c0,0-1.3,0.4-3,0.7c3.3-46,5.2-72.1,5.7-78.2c0.5-6.1,1.7-9.7,3.8-10.8
		C671,423.5,668.9,452.9,668.9,453.9z"/>
	<path class="st14" d="M669.1,450.6c-0.2,2-0.2,3.2-0.2,3.3c-3.5,1.1-10.5,2.4-14.5-0.2c-0.1-0.7-0.2-1.8-0.3-3.1
		C658.7,452.6,663.7,452.6,669.1,450.6L669.1,450.6z"/>
	<path class="st14" d="M702.8,454.1c-6.6,1.5-11.6,1.4-14.9-0.2c-0.1-0.8-0.3-1.9-0.6-3.3c4.5,1.2,9.6,1.2,15.4,0
		C702.8,452.7,702.8,453.9,702.8,454.1z"/>
	<path class="st36" d="M569.4,450.2c4.5,2.4,9.1,2.8,13.8,1.2c-0.2,1.4-0.4,2.4-0.5,3.2c-2.7,2.2-7.2,2.1-13.5-0.2
		C569.3,452.9,569.3,451.5,569.4,450.2z"/>
	<path class="st36" d="M534.9,450.7c5.3,2,9.5,2.2,12.5,0.6c-0.4,1.7-0.6,3-0.8,4c-3.4,1.5-7.5,1.3-12.4-0.5
		C534.4,453.8,534.7,452.4,534.9,450.7L534.9,450.7z"/>
	<path class="st36" d="M561.7,373.5c10.1,16.9,10,56.9,10.1,81.6c-1-0.3-1.9-0.5-2.6-0.8c0.1-1.4,0.1-2.8,0.2-4.2
		C570.3,424.3,567.8,398.7,561.7,373.5z"/>
	<path class="st36" d="M561.7,373.9c-1.2-0.1,0.7-3.7,1.4-8.2c0.1-0.6,1-0.4,0.9,0.2C562.8,370.6,562.5,373.6,561.7,373.9
		L561.7,373.9z"/>
	<path class="st10" d="M599.3,328.6c3.9-2,8-1.6,14.1,0.6c2.1,0.2,3.5,4.2,0.1,4.9c-3.3,0.6-7.1,0.5-11.4-0.4L599.3,328.6z"/>
	<path class="st19" d="M605.7,329.5c1.9-1.8,4.5-2.7,7-2.6c1.6,0,2.8,2.4,1.1,2.4c-2-0.3-5.2,0.1-7,1.2
		C606.1,331.3,604.9,330.3,605.7,329.5L605.7,329.5z"/>
	<path class="st19" d="M607.5,334.1c-0.8,1.4-2.4,0.4-1.6-0.9C606.7,331.8,608.3,332.8,607.5,334.1z"/>
	<path class="st19" d="M609.2,334.3c-0.8,1.4-2.4,0.4-1.6-0.9C608.3,331.9,610,332.9,609.2,334.3z"/>
	<path class="st19" d="M610.9,334.5c-0.8,1.4-2.4,0.4-1.6-1C610,332.1,611.7,333.1,610.9,334.5z"/>
	<path class="st19" d="M612.6,334.5c-0.8,1.4-2.4,0.4-1.6-1C611.7,332.1,613.4,333.1,612.6,334.5z"/>
	<path class="st18" d="M684.9,286.2c0.1,3.8-9.6,7.1-10.2,7.1l-1.2-3.4c-1,0.2-1.9,1.1-2.8,2.5c-4.3-4.3-0.4-7.6,2.8-7
		c-0.1,0.2-0.7,5.9,8.3,0.1C682.6,285.2,683.6,285.4,684.9,286.2L684.9,286.2z"/>
	<path class="st37" d="M728.8,402.6l-46,6.6l-4.8-33.5l46-6.6L728.8,402.6z"/>
	<path class="st39" d="M682.9,409.3l-2.7-1.5l-4.8-33.5l2.7,1.5L682.9,409.3z"/>
	<path class="st39" d="M675.4,374.2l46-6.6l2.6,1.5l-46,6.6L675.4,374.2z"/>
	<path class="st37" d="M709.8,369.3c-4.5-9.3-16.1-6.6-18.8,2.7c-0.1,0.7,0.4,1.5,1.1,1.3c0.8-0.1,0.9-1.1,1.2-1.7
		c1.9-4.2,7-7,11.3-4.6c1.3,0.7,2.5,1.9,3.3,3.2C708.7,371.4,710,370.4,709.8,369.3L709.8,369.3z"/>
	<path class="st40" d="M724,369.2l-20.6,20L678,375.8L724,369.2z"/>
	<path class="st18" d="M704.1,392.1c-1.1,0.3-2.3-0.2-2.4-1.4c-0.2-1.4-1.1-4,1.1-4.3c1.1-0.3,2.3,0.2,2.4,1.4
		C705.3,389.1,706.2,391.7,704.1,392.1z"/>
	<path class="st10" d="M705.1,358.7c0.6,4,0.2,7.1-1.4,9.3l-7-0.4c0-3.3,0.7-6.4,2.1-9.5L705.1,358.7z"/>
	<path class="st36" d="M700.6,352.9c-1.3,1.1-3.2,2-5.5,2.6c0.5-6.7-0.6-17.3-5.3-29.2c-3.1-8-4.6-16-4.5-24.2l3.5,0.2
		C694.9,319.5,706.2,348.2,700.6,352.9L700.6,352.9z"/>
	<path class="st11" d="M684.9,286.2c25.5,5.6,32.6,45.7,20.3,72.4c-1.8,0.6-3.9,0.4-6.2-0.6c-0.1-12.7-2.7-24.2-7.8-34.5
		C685.9,313.3,683.8,300.9,684.9,286.2z"/>
	<path class="st27" d="M547.1,463.6c-0.2,0.8-1,1.5-1.9,1.5h-9c-0.9,0-1.7-0.7-1.9-1.5H547.1z"/>
	<path class="st27" d="M595.6,463.6c0,0.8-0.7,1.5-1.5,1.5h-22.7c-0.1-0.5-0.1-1-0.1-1.5H595.6z"/>
	<path class="st35" d="M594.3,362.5c-1.4,1.9-3.2,3.2-5.6,4.1c-0.6-0.4-1.2-1-1.6-2c3.2-1.2,5.3-2.7,6.1-4.7
		C593.6,360.3,594.3,361.6,594.3,362.5z"/>
	<path class="st12" d="M598,336c-16,13-47.5,15.3-57.4-4.1c-9.1-18,3.1-33.6,14.6-35.4c0,0,3.8,11,2.6,19.1l0.1,7.3
		c4.8,9.7,29.4,8.2,38.4,6.4C598.5,331.6,599.1,333.8,598,336L598,336z"/>
	<path class="st35" d="M598.6,335.7c-0.8,1-1.8,1.2-2.4,1.6c0.5-3.6-0.2-6.1-2-7.5c0.8-0.4,1.7-0.5,2.6-0.4
		C598.4,331.1,599.1,333.2,598.6,335.7z"/>
	<path class="st35" d="M557.9,323c-1.5-2.4-5.1-9.1-2.2-14.2c-1.6-2.1-3.5-5.6-5.7-10.3c1.3-1.5,3-2.5,5.2-2.9
		C558.6,303,559.5,312.1,557.9,323L557.9,323z"/>
	<path class="st35" d="M580.6,331.1c-1.9,0-3.1-0.1-3.1-0.1c-0.3,0-0.3-0.6,0-0.5c0.1,0,4.5,0.2,9.2-0.2c0.1,0,0.2,0.1,0.3,0.2
		c0,0.2-0.1,0.3-0.2,0.3C584.4,331.1,582.2,331.1,580.6,331.1L580.6,331.1z"/>
	<path class="st35" d="M579.7,345.1c-1.6-0.6,5.6-1.7,9.2-3.9c0.2-0.1,0.3,0,0.4,0.1c0.1,0.1,0,0.3-0.1,0.3
		C585.2,343.7,579.8,345,579.7,345.1L579.7,345.1z"/>
	<path class="st19" d="M613.3,330.8c-2-0.1-5.1,0-4.1-0.5c0,0,3.7,0.3,6,0.1C616.2,330.9,613.6,330.8,613.3,330.8z"/>
	<path class="st19" d="M612.6,332.3c-0.1,0-4.3,0-3.2-0.6c3.6,0.6,6.2,0,6.3,0C616.5,332.1,614.5,332.3,612.6,332.3L612.6,332.3z"/>
	<path class="st10" d="M698.6,368c-0.7,1.4-2.4,0.5-1.7-0.9C697.7,365.7,699.4,366.6,698.6,368z"/>
	<path class="st10" d="M700.3,368.1c-0.7,1.4-2.4,0.5-1.7-0.9C699.4,365.8,701,366.7,700.3,368.1z"/>
	<path class="st10" d="M702,368.2c-0.7,1.4-2.4,0.5-1.6-0.9C701.1,365.9,702.7,366.8,702,368.2z"/>
	<path class="st10" d="M703.7,368.2c-0.7,1.4-2.4,0.5-1.7-0.9C702.8,365.8,704.5,366.8,703.7,368.2z"/>
	<path class="st27" d="M565.6,297.7c-0.4,4.7-8.8,1.6-9.2,1c-0.1-0.3-1.4-2.6-1.1-2.9l8.3,0.5C564.1,296.5,564.7,297,565.6,297.7
		L565.6,297.7z"/>
	<path class="st15" d="M554.7,262.4c10.2-1.6,20.2,11.1,14.4,22.6L554.7,262.4z"/>
	<path class="st10" d="M555.2,295.7c-0.2-7.5-0.3-11.2-0.5-11.1c-1.3-5.2,6.9-7.2,8.1-2c0.6,2.7,1.3,9.1,0.8,13.6
		C563.6,299.6,556.6,297.8,555.2,295.7L555.2,295.7z"/>
	<path class="st19" d="M555.2,293.6c3.6,1.6,7.8,0.8,8.6,0.6C564.9,276.1,555.6,274.2,555.2,293.6z"/>
	<path class="st10" d="M552.6,268.8c3.4-3.4,9.6-3.6,12.5,0.6c2,2.3,2.5,6.3,5,8.6c6.8,7.3-3.4,17.4-12.1,15c-1.5-0.3-3-0.9-4.2-1.9
		h0c-2.9-2.4-4.2-6.6-4.8-10.3C548.5,276.1,549.6,271.9,552.6,268.8L552.6,268.8z"/>
	<path class="st38" d="M566.9,285l-4.9-2.5C561.6,285.4,564.7,287.3,566.9,285z"/>
	<path class="st20" d="M563.2,278.4c0.3-0.7-0.7-1.1-1-0.5C561.9,278.5,562.9,279,563.2,278.4z"/>
	<path class="st20" d="M567.9,277.6c0.3-0.7-0.7-1.2-1-0.5C566.6,277.7,567.6,278.2,567.9,277.6z"/>
	<path class="st20" d="M566.9,285.2c-0.1,0-4.9-2.5-5-2.5c-0.1-0.1-0.1-0.2-0.1-0.3c0-0.6,5.1,2.4,5.2,2.4
		C567.2,284.9,567.1,285.2,566.9,285.2L566.9,285.2z"/>
	<path class="st20" d="M566.1,282.5c-0.2,0-0.8,0-0.7-0.3c0-0.1,0.2-0.2,0.2-0.2c0.7,0.3,2.4-0.2,1.6-0.7c-1.2-0.7-2-2.9-2-3
		c-0.1-0.2,0.3-0.4,0.4-0.1c0,0,0.8,2.2,1.9,2.8C568.8,281.8,567.2,282.5,566.1,282.5z"/>
	<path class="st19" d="M556.7,266.6c2.5-0.6,5.1-0.3,7,1.4c0.7,6.9-3.2,11.7-11.8,14.5l-0.8,2c0.7,3,1.6,5.2,2.7,6.5h0
		c-2.9-2.4-4.2-6.6-4.8-10.3C548.3,274.7,550.7,268.1,556.7,266.6z"/>
	<path class="st15" d="M551.9,281.4l-4.1-2.3c-2.2-4.3-1.1-9.7,2.3-12.6c-0.4-0.7-0.8-1.6-1.1-2.7c-2.4-9.8,8.9-12.7,11.6-3
		c0.5,2,0.4,3.7-0.1,5.1c0.6,0.3,1.2,0.7,1.9,1.1C563.1,273.8,559.6,278.7,551.9,281.4z"/>
	<path class="st10" d="M546.7,282.6c1,4.2,6,3.2,5.2-1.1C550.9,277.2,545.8,278.3,546.7,282.6z"/>
	<path class="st20" d="M548,283.4c-0.1,0-0.2-0.1-0.2-0.2c-1-2.7,0.5-3.8,2.3-3.1c0.2,0.1,0.1,0.5-0.2,0.4c-1.6-0.6-2.5,0.3-1.7,2.6
		C548.3,283.3,548.2,283.4,548,283.4z"/>
	<path class="st20" d="M550,283.1c-0.4,0-0.6-1.6-2.2-1.8c-0.1,0-0.2-0.1-0.2-0.2c0-0.1,0.1-0.2,0.2-0.2
		C549.4,281,550.6,283.1,550,283.1L550,283.1z"/>
	<path class="st18" d="M549,284.5c0,0.6,1,0.6,1,0C550,283.9,549,283.9,549,284.5z"/>
	<path class="st35" d="M563.6,295.6c6.7,3.1,10.5,7.3,11.7,12.5c3,2.9,3.8,7.2,2.4,13c-3.3-10.5-8-18.8-14.2-24.8L563.6,295.6z"/>
	<path class="st27" d="M565.1,302.5c0,1.1-1.8,1.1-1.8,0C563.3,301.4,565.1,301.4,565.1,302.5z"/>
	<path class="st27" d="M566.9,306.4c0,1.1-1.8,1.1-1.8,0C565.1,305.2,566.9,305.2,566.9,306.4z"/>
	<path class="st27" d="M568.6,310.5c0,1.2-1.8,1.2-1.8,0C566.8,309.3,568.7,309.3,568.6,310.5z"/>
	<path class="st19" d="M698.5,368.4c-0.4,0,0.1-2.1,0.4-3.6c0-0.1,0.1-0.2,0.2-0.1s0.2,0.1,0.1,0.2
		C698.7,366.4,698.8,368.3,698.5,368.4z"/>
	<path class="st19" d="M700.1,368.4c-0.4,0,0.2-2,0.5-3.5c0-0.1,0.1-0.2,0.2-0.1c0.1,0,0.2,0.1,0.1,0.2
		C700.5,366.5,700.5,368.3,700.1,368.4z"/>
	<path class="st19" d="M702,368.4c-0.5-0.1,0.4-1.8,0.3-3.5c0-0.1,0.1-0.2,0.2-0.2c0.1,0,0.2,0.1,0.2,0.2c0,1.5-0.5,3.2-0.5,3.3
		C702.1,368.3,702.1,368.4,702,368.4z"/>
</g>
<g>
	<g>
		<path class="st33" d="M62,339.1l77.6-8.3c2.1,17.7,8.6,31.7,19.7,42.1c11,10.3,23.6,15.5,37.6,15.5c16.8,0,30.8-6.6,41.9-19.8
			c11.2-13.2,16.7-33.3,16.7-60.2c0-25.1-5.6-43.9-16.7-56.4c-11.2-12.5-25.8-18.8-44-18.8c-22.3,0-42.4,10-60.4,30l-63.1-9
			l40-212.5H318v73.5H170.7l-12.4,69c17.5-8.7,35.3-13.1,53.5-13.1c34.7,0,64.2,12.6,88.3,37.9s36.2,58,36.2,98
			c0,33.6-9.7,63.6-29,90c-26.7,35.9-63.6,53.8-110.7,53.8c-37.5,0-68.1-10.1-91.9-30.2C80.8,400.6,66.6,373.4,62,339.1z"/>
	</g>
	<g>
		<path class="st41" d="M40.6,338.7l77.6-8.3c2.1,17.7,8.6,31.7,19.7,42.1c11,10.3,23.6,15.5,37.6,15.5c16.8,0,30.8-6.6,41.9-19.8
			c11.2-13.2,16.7-33.3,16.7-60.2c0-25.1-5.6-43.9-16.7-56.4s-25.8-18.8-44-18.8c-22.3,0-42.4,10-60.4,30l-63.1-9l40-212.5h206.6
			v73.5H149.2l-12.4,69c17.5-8.7,35.3-13.1,53.5-13.1c34.7,0,64.2,12.6,88.3,37.9s36.2,58,36.2,98c0,33.6-9.7,63.6-29,90
			c-26.7,35.9-63.6,53.8-110.7,53.8c-37.5,0-68.1-10.1-91.9-30.2C59.4,400.2,45.1,373,40.6,338.7z"/>
	</g>
</g>
<g>
	<path class="st11" d="M73.4,290.2c11.7-2.3,9.5-10.2,20.8-6.2c0,0,10.4-6.7,11.4,11.2c0.9,15.5-6.6,23-18.4,29.4
		c-14,7.6-36.1-0.7-35.2-18.2C52.6,294.1,61.9,292.3,73.4,290.2L73.4,290.2z"/>
	<path class="st10" d="M101.8,312.5c19,6.1,29.5-1.3,37.4-18.7c0.8-3.2,5.2-2.8,4.9,0.6c0,0.6-0.2,1.3-0.3,1.9
		c-5,23.6-23.1,34.7-46.2,26.3C91,319.8,95.2,309.8,101.8,312.5L101.8,312.5z"/>
	<path class="st9" d="M97.8,311.4c1.8-0.7,3.5-0.7,5.3,0c2.6,1.1,9.6,2.2,14.4,1.5c4.7-0.7,11.5-5.3,13.6-8.4c2.1-3.1,3.4-6,5.6-5.3
		c1.3,1.1,3.3,1.5,6,1.2c2.3,3,1.6,7.3-2,13c-5.3,8.2-18.7,19.9-39,16.3L97.8,311.4z"/>
	<path class="st26" d="M184.9,295.5l-73.3,0.2c0,0-0.1,0-0.1,0c-0.7,0.1-1.3-0.9-1.4-2.1c-0.1-1.2,0.3-2.2,1-2.3c0,0,0,0,0.1,0
		l72.2-12.6L184.9,295.5z"/>
	<path class="st27" d="M183.4,278.7c2-0.2,4,3.4,4.5,8.1c0.4,4.6-0.9,8.5-3,8.7c-2,0.2-4-3.4-4.5-8.1
		C180,282.8,181.3,278.9,183.4,278.7z"/>
	<path class="st42" d="M183.5,280.9c1.6-0.2,3,2.6,3.3,6c0.3,3.5-0.7,6.4-2.2,6.5c-1.5,0.1-3-2.6-3.3-6
		C181,283.9,182,281,183.5,280.9z"/>
	<path class="st10" d="M98.1,309l-0.3,2.4c-1.3,4.1-6.7,0.9-7.5-0.7c0.3-1.5,0.5-2.7,0.6-3.4L98.1,309z"/>
	<path class="st10" d="M48.9,461.8L37.6,448c0.6-0.8,4.5-2.9,5.6-4c0.8-0.6,9.8-9.8,10.8-10.7l6.5,8l-11.3,7.1
		c-1.3,0.8-1.9,2.5-1.3,4c1.1,3.4,4,5.9,3.3,9.2C50.8,462.4,49.5,462.6,48.9,461.8L48.9,461.8z"/>
	<path class="st11" d="M43.1,443.9c1.5,2.7,3.1,4.7,4.7,5.8c4.9,6.7,4.2,10.3,3.2,12.1c-0.5,0.7-1.5,0.8-2.1,0.1l-11.4-14
		c0.2-0.6,0.6-1.1,1-1.5C39.7,445.3,41.2,444.4,43.1,443.9L43.1,443.9z"/>
	<path class="st12" d="M51.8,457.5c-0.7,0.2-1.1-0.7-3.2-0.1c-0.2,0.1-0.4-0.1-0.5-0.2C48.2,455.8,53.1,456.7,51.8,457.5z"/>
	<path class="st12" d="M50.9,454.9c-0.1,0.1-0.2,0.1-0.3,0c0,0-1.7-0.7-3.6,0c-0.4,0.2-0.7-0.5-0.3-0.6c2.1-0.9,4.1-0.1,4.1,0
		C51.2,454.4,51.2,454.8,50.9,454.9L50.9,454.9z"/>
	<path class="st12" d="M49.4,452c-0.5,0.2-1.8-0.6-4.1,0.2c-0.5,0.2-0.7-0.5-0.3-0.7C47.4,450.8,50.3,451.1,49.4,452z"/>
	<path class="st13" d="M49,461.9l-11.4-14c0.2-0.6,0.6-1.1,1-1.5L51,461.8C50.6,462.5,49.5,462.6,49,461.9z"/>
	<path class="st10" d="M104.6,464.6l-17.9-0.2c-0.3-1,0.7-5.3,0.5-6.9c0-0.7-0.2-4.3-0.2-5l1.3-10.1l7.9,0.1l-1.8,13.2
		c-0.2,1.5,0.7,3,2.2,3.6c3.3,1.3,7,0.7,9.1,3.3C106.3,463.5,105.7,464.6,104.6,464.6L104.6,464.6z"/>
	<path class="st11" d="M87.2,457.5c4.6,0.9,7.5,0.1,7.5,0.1c8.3,0.5,10.7,3.3,11.3,5.3c0.3,0.8-0.3,1.7-1.2,1.7l-18-0.2
		c-0.3-0.5-0.4-1.1-0.5-1.7C86.1,461,86.4,459.3,87.2,457.5L87.2,457.5z"/>
	<path class="st12" d="M100.7,462.2c-0.2,0-0.4-0.3-0.3-0.5c0.8-1.9,2.3-2.5,2.4-2.5c0.4-0.2,0.7,0.5,0.2,0.7
		c-0.1,0-1.2,0.5-1.9,2.1C101,462.1,100.9,462.2,100.7,462.2z"/>
	<path class="st12" d="M97.9,461.9c-0.2,0-0.4-0.2-0.4-0.5c0.7-2.4,3.8-4.2,3-2.5c0,0-1.7,0.9-2.3,2.7
		C98.2,461.7,98.1,461.9,97.9,461.9L97.9,461.9z"/>
	<path class="st12" d="M94.7,461.4c-0.2,0-0.4-0.3-0.4-0.5c0.8-2.2,2.5-3.3,2.6-3.4c0.4-0.3,0.8,0.3,0.4,0.6c0,0-1.6,1.1-2.3,3
		C95,461.3,94.8,461.4,94.7,461.4z"/>
	<path class="st13" d="M104.8,464.6l-18-0.2c-0.3-0.5-0.4-1.1-0.5-1.7l19.8,0.2C106.3,463.7,105.7,464.6,104.8,464.6L104.8,464.6z"
		/>
	<path class="st19" d="M98.3,298.8c0.3,2.5,0.3,6.5-0.3,10.8c-0.7,0.1-4.3,0.3-7.3-1.5c0.4-3.4,0.5-8.1,0.3-8c0-0.1,0-0.3,0-0.4
		C90.9,295.3,97.5,294.5,98.3,298.8L98.3,298.8z"/>
	<path class="st10" d="M89.2,286.4c3-3.1,8.6-3.3,11.2,0.3c1.8,2,2.3,5.6,4.5,7.6c6.2,6.4-2.9,15.7-10.6,13.6
		c-1.4-0.2-2.7-0.8-3.8-1.7h0c-2.7-2.1-3.8-5.9-4.4-9.2C85.6,293,86.5,289.2,89.2,286.4L89.2,286.4z"/>
	<path class="st20" d="M98.8,294.8c0.3-0.6-0.6-1.1-0.9-0.5C97.6,294.9,98.6,295.4,98.8,294.8z"/>
	<path class="st20" d="M103.1,294.1c0.3-0.6-0.6-1.1-0.9-0.5C101.8,294.2,102.8,294.6,103.1,294.1z"/>
	<path class="st26" d="M95.3,455c-4.1,0.8-7.5,0-10.5-2.4c0.3-1.3,0.7-2.5,1-3.7c7.5-28.4,7.3-50.1-0.5-65
		c-2.5,22-8.4,43.6-29.6,62.6c-0.9,0.8-1.8,1.6-2.8,2.4c-3.2-0.7-6.3-3.7-9.2-9c0.7-0.9,1.5-1.8,2.1-2.6
		c23.5-30.3,11.6-62.7,22.4-82.7c5.7-10.7,28.3-4,36.9,6C119.6,405.9,102.9,440.6,95.3,455z"/>
	<path class="st20" d="M101.8,298.4c-0.3,0-1,0.1-1-0.3c0-0.1,0.2-0.2,0.2-0.1c0.7,0.2,1.5-0.2,1.7-0.4c0-0.1-0.1-0.2-0.2-0.3
		c-1.1-0.5-2.5-3.5-1.5-2.8c0,0,0.7,2,1.7,2.5C103.8,297.7,102.6,298.3,101.8,298.4L101.8,298.4z"/>
	<path class="st27" d="M50.4,444.6l-0.7-0.7c0.2-0.2,18.7-19.9,23.9-37.4c5.2-17.4,4.6-46.2,4.6-46.4l0.9,0c0,0.3,0.6,29.2-4.7,46.8
		C69.2,424.6,50.6,444.4,50.4,444.6L50.4,444.6z"/>
	<path class="st19" d="M99.2,285.5c0.7,6.2-2.7,10.6-10.4,13.2l-0.7,1.8c0.7,2.7,1.5,4.6,2.5,5.8h0c-2.7-2.1-3.8-5.9-4.4-9.2
		C84.5,289.4,91.7,280.3,99.2,285.5z"/>
	<path class="st11" d="M97.9,284.7c0.7,6.1-2.4,10.4-9.2,13l-3.8-2C81.2,288.7,87.6,278.2,97.9,284.7L97.9,284.7z"/>
	<path class="st11" d="M85.8,282c2.5,8.7,12.6,5.9,10.4-2.9C93.7,270.5,83.6,273.3,85.8,282z"/>
	<path class="st10" d="M84,298.8c0.8,3.7,5.5,2.7,4.6-1.1C87.9,294,83.2,295,84,298.8z"/>
	<path class="st20" d="M85.3,299.5c-0.8-0.8-0.5-2.5-0.1-2.8c0.7-0.6,2.1-0.3,2,0.1c-0.2,0.4-1-0.4-1.7,0.2
		C84.7,297.6,85.7,299.2,85.3,299.5L85.3,299.5z"/>
	<path class="st20" d="M87.1,299.2c-0.4,0-0.6-1.4-2-1.5c-0.1,0-0.2-0.1-0.2-0.2C85.9,296.7,87.8,299.3,87.1,299.2L87.1,299.2z"/>
	<path class="st18" d="M86.2,300.5c0,0.6,0.9,0.6,0.9,0C87,299.9,86.2,299.9,86.2,300.5z"/>
	<path class="st27" d="M85.8,448.8c2.6,2.4,6.3,3.4,11.2,3c-0.7,1.4-1.3,2.4-1.7,3.2c-4.1,0.8-7.5,0-10.5-2.4
		C85.1,451.3,85.5,450.1,85.8,448.8z"/>
	<path class="st27" d="M85.8,448.8c7.5-28.4,7.3-50.1-0.5-65c11.3,5.9,10,43.5,2.4,66.3h-2.2C85.6,449.7,85.7,449.3,85.8,448.8z"/>
	<path class="st27" d="M92.2,453.3c13.5-30.7,14.1-53.8,12.3-67.8c-2-15.2-7.2-23.2-7.2-23.3l0.7-0.5c0.1,0.1,5.4,8.2,7.3,23.6
		c1.2,9,1,18.7-0.5,28.8c-1.9,12.6-5.9,25.9-11.9,39.6L92.2,453.3z"/>
	<path class="st9" d="M107,338.5c-1.6,4.6-4,9.5-1,18.7c0.2,1.6-0.1,2.8-0.9,3.4c-11.4,3.8-27.7,0.3-37.5-4.3
		c-5.6-4.6,2-13.2,2.5-16.2c4.8-31.7,15.2-30.4,20.4-30.4c1.7,2,5.9,5.2,7.4,1.8c7.4,1.1,5.2,9.4,7.2,12.5c2,3.2,2.9,5.8,3.1,8
		C108.3,334.3,107.7,336.3,107,338.5L107,338.5z"/>
	<path class="st20" d="M99.7,299.3c-0.1-0.1-0.1-0.2,0-0.3c0.1-0.1,0.2-0.1,0.3,0c0.7,0.7,1.4,0.4,1.5,0.4c0.1-0.1,0.2,0,0.3,0.1
		c0.1,0.1,0,0.2-0.1,0.3c0,0-0.2,0.1-0.6,0.1C100.7,299.8,100.2,299.7,99.7,299.3L99.7,299.3z"/>
	<path class="st20" d="M96.2,292.9c0-0.1,0-0.2,0.1-0.3l2.2-0.9c0.1,0,0.2,0,0.3,0.1c0.1,0.1,0,0.3-0.1,0.3l-2.1,0.9
		c0,0-0.1,0-0.1,0C96.3,293,96.2,293,96.2,292.9z"/>
	<path class="st20" d="M100.4,291.7c0-0.1,0.1-0.2,0.2-0.2h2c0.1,0,0.2,0.1,0.2,0.2c0,0.1-0.1,0.2-0.2,0.2h-2
		C100.5,291.9,100.4,291.8,100.4,291.7z"/>
	<path class="st10" d="M90.6,313.7c17.4,11.3,25,9.8,31.5-10.7c0.7-1.9,0.4-5.2,3.2-5.2c2.4,0.1,2.5,2.4,2.3,4.3
		c-0.5,12-5.1,27.2-18.6,29.7c-9.1,1.1-17.7-2.8-25.4-6.9C76.1,320.3,83.2,309.1,90.6,313.7z"/>
	<path class="st10" d="M122.1,291.4c1.1-0.1,0.8,2.4,1.5,3.2c0.9-1.4,1.4-3.1,1.4-3.1c0.2-2.1,0.4-4.2,0.4-6.3
		c1.7-2.8,1.4,5.3,1.5,6.1c0,0,0,0,0,0c0.7-2.1,1.3-4.2,1.7-6.4c2.3-2.4,0.1,6.2,0,7.1c0,0,0,0,0,0c1-1.9,1.7-3.8,2.3-5.9
		c2.5-2.2-0.4,6.4-0.8,7.2c0,0,0,0,0,0c1-1.3,1.8-2.8,2.5-4.3c2.7-1.7-0.9,5.4-1.4,6c-0.1,0.6-1.6,3.3-4.1,6.1
		c-0.8,0.9-3.9-0.7-4.3-1.8c-0.4-1.1-0.5-2.6-0.5-3.2C122.1,295,121,292.1,122.1,291.4L122.1,291.4z"/>
	<path class="st43" d="M127.6,302.9c-2.2,0.4-3.9,0-5.1-1.4c-0.1-0.5,0-1,0.3-1.5c1.8,1.4,3.4,1.9,4.9,1.5
		C127.9,302,127.9,302.5,127.6,302.9L127.6,302.9z"/>
	<path class="st14" d="M107,338.5c-11.3,1.3-19.2-1.8-23.8-9.5l24.9,2.9C108.3,334.3,107.7,336.3,107,338.5L107,338.5z"/>
	<path class="st9" d="M88.1,310.4c2.9,1.4,5.3,2.9,7.2,4.5c2.9,2.4,6.6,4.8,10.3,4.4c3.8-0.4,7.5-2,9.5-6.2c1.9-3.8,3.9-7.7,6.1-7.6
		c2,1,4,1.2,6,0.7c3.1,2.1,2.9,7.5-0.8,16.2c-5.5,13-22,15.2-28.6,14.2c-10.1-1.6-18.2-9-19-17.1C78,311.5,85,310.3,88.1,310.4
		L88.1,310.4z"/>
	<path class="st27" d="M55.7,446.4c-0.9,0.8-1.8,1.6-2.8,2.4c-3.2-0.7-6.3-3.7-9.2-9c0.7-0.9,1.5-1.8,2.1-2.6
		C48.4,442.1,51.7,445.2,55.7,446.4z"/>
	<path class="st14" d="M123.7,327.3c0,0-0.1,0-0.2,0c-0.1-0.1-0.1-0.2,0-0.3c0-0.1,3.6-4.6,5-11.8c1-4.9-0.3-7.1-0.3-7.1
		c-0.1-0.1,0-0.3,0.1-0.3c0.1-0.1,0.2,0,0.3,0.1c0.1,0.1,1.5,2.4,0.4,7.5c-1.5,7.3-5.1,12-5.1,12
		C123.8,327.2,123.7,327.3,123.7,327.3L123.7,327.3z"/>
	<path class="st14" d="M105,319.6c-0.7,0-1.1-0.1-1.2-0.1c-3.4-0.2-8.4-4.2-8.6-4.4c-0.1-0.1-0.1-0.2,0-0.3c0.1-0.1,0.2-0.1,0.3-0.1
		c0.1,0.1,5.1,4.2,8.4,4.3c0.1,0,7.4,1,10.8-5.7c0.1-0.1,0.2-0.2,0.3-0.1c0.1,0.1,0.2,0.2,0.1,0.3
		C112.5,318.9,107.3,319.6,105,319.6z"/>
</g>
<g>
	<path class="st10" d="M239.9,464.1l-12.1,0.2c0-1.5,0.1-2,0.8-3.2c2.4-3.2-0.5-17.6-0.4-21.3c-0.6-1,10.5-0.2,10.7-0.5
		c0.2,0,0.4,0.2,0.4,0.5l-1.3,16.4C237.4,459.3,239.8,461.2,239.9,464.1z"/>
	<path class="st10" d="M284.4,465.5h-19.8c-0.9,0-1.6-0.8-1.6-1.7c0-0.4,0.1-0.9,0.2-1.5c0.3-1.7,0.4-3.3,0.4-5
		c0-0.8-0.1-1.6-0.2-2.4L262,441c-0.1-0.9,0.6-1.7,1.5-1.7h8.8c1,0,1.7,0.8,1.6,1.8l-1.6,12.7c-0.3,2.8,1.5,5.4,4.2,6
		c1.9,0.5,3.9,0.7,5.3,1.1c0.2,0,0.4,0.1,0.5,0.2c1.5,0.4,2.7,1,3.4,2C286.4,464.1,285.7,465.5,284.4,465.5L284.4,465.5z"/>
	<path class="st22" d="M263.6,457.3c4.6,0.6,7.8,0.2,9.2,0c9.7,0.6,12.6,3.9,13.4,6.2c0.4,1-0.4,2-1.5,2c-13.7,0-20.6,0-20.6,0
		c-1.1,0-1.6-1.1-1.7-2C262.1,461,262.5,459,263.6,457.3z"/>
	<path class="st22" d="M227.4,463.5C227.4,463.5,227.4,463.5,227.4,463.5c0.1-2.5,1.1-6.2,6.4-6.2c5.2,0.1,6.3,3.7,6.4,6.2
		c0,0,0,0,0,0c0.1,1.1-0.8,2-2,2h-8.8C228.3,465.5,227.4,464.6,227.4,463.5L227.4,463.5z"/>
	<path class="st12" d="M279.8,462.7c-0.1,0-0.1,0-0.2,0c-0.2-0.1-0.3-0.3-0.2-0.6c0.9-2.3,2.7-3,2.8-3.1c0.2-0.1,0.5,0,0.6,0.2
		c0.1,0.2,0,0.5-0.2,0.6c-0.1,0-1.5,0.6-2.3,2.6C280.1,462.6,279.9,462.7,279.8,462.7z"/>
	<path class="st12" d="M276.4,462.3c0,0-0.1,0-0.1,0c-0.2-0.1-0.4-0.3-0.3-0.5c0.8-2.6,3-3.8,3.1-3.8c0.2-0.1,0.5,0,0.6,0.2
		c0.1,0.2,0,0.5-0.2,0.6c0,0-2,1.1-2.7,3.3C276.7,462.2,276.5,462.3,276.4,462.3z"/>
	<path class="st12" d="M272.5,461.9c0,0-0.1,0-0.1,0c-0.2-0.1-0.4-0.3-0.3-0.6c0.9-2.6,3-4,3.1-4.1c0.2-0.1,0.5-0.1,0.6,0.1
		c0.2,0.2,0.1,0.5-0.1,0.6c0,0-1.9,1.3-2.7,3.6C272.9,461.7,272.7,461.9,272.5,461.9L272.5,461.9z"/>
	<path class="st12" d="M230.6,459.9c-0.2,0-0.3-0.1-0.4-0.2c-0.1-0.2,0-0.5,0.2-0.6c3-1.7,6.7-0.1,6.8,0c0.2,0.1,0.3,0.4,0.2,0.6
		c-0.1,0.2-0.4,0.3-0.6,0.2c0,0-3.4-1.5-6,0C230.8,459.9,230.7,459.9,230.6,459.9L230.6,459.9z"/>
	<path class="st23" d="M286.1,463.5c0.3,1-0.4,2-1.5,2h-21.6c-0.4-0.6-0.6-1.3-0.7-2L286.1,463.5
		C286.1,463.5,286.1,463.5,286.1,463.5z"/>
	<path class="st23" d="M227.4,463.5C227.4,463.5,227.4,463.5,227.4,463.5l12.7,0v0c0.1,1.1-0.8,2-2,2h-8.8
		C228.3,465.5,227.4,464.6,227.4,463.5L227.4,463.5z"/>
	<path class="st11" d="M226.1,450.7c-0.7-40,0.3-73.1,2.8-99.2c12.3,3.5,26.8,3.3,43.5-0.6c8.5,45.9,4.2,85.1,2.7,99.8
		c-0.1,1.4-0.2,2.4-0.3,3.2c-3.3,2.2-8.4,1.7-11.6,1c-1.2-0.2-2.2-0.5-3-0.8c0-0.2-0.1-1.4-0.2-3.4c-1.6-25.1-3.8-49.8-6.5-74.2
		c-4.2,23.5-9.7,61.4-11.9,74.2c-0.2,1.4-0.4,2.6-0.6,3.4c-3.4,1.6-8.4,1.7-15.1,0.2C226,454.1,226.1,452.9,226.1,450.7L226.1,450.7
		z"/>
	<path class="st22" d="M271,452.4C271,452.4,270.9,452.4,271,452.4c-0.3,0-0.6-0.3-0.6-0.6c3.8-53-4-102.5-4.1-103
		c-0.1-0.3,0.2-0.6,0.5-0.7c0.3-0.1,0.6,0.2,0.7,0.5c0.1,0.5,7.9,50,4.1,103.2C271.5,452.2,271.3,452.4,271,452.4L271,452.4z"/>
	<path class="st22" d="M233.8,452.4c-0.3,0-0.6-0.3-0.6-0.6c2.3-54.6,10.5-103.1,10.6-103.6c0.1-0.3,0.4-0.5,0.7-0.5
		c0.3,0,0.5,0.3,0.5,0.7c-0.1,0.5-8.3,48.9-10.6,103.4C234.4,452.2,234.1,452.4,233.8,452.4L233.8,452.4z"/>
	<path class="st22" d="M226.1,450.7c5.4,1.1,10.5,1.1,15.5,0c-0.2,1.4-0.4,2.6-0.6,3.4c-3.4,1.6-8.4,1.7-15.1,0.2
		C226,454.1,226.2,452.9,226.1,450.7z"/>
	<path class="st10" d="M260.5,299.5c7.4,7.9,11.7,18.2,15.1,28.3c2.9,9.8,7.7,19.3,15.1,26.5c2.4,1.8-0.3,5.6-2.8,4
		c-4.6-3-8.6-6.8-12.2-11c-9.8-11-13.4-26.7-25.3-36c0,0,0,0.1,0.1,0.1C242.9,304.7,252.8,293,260.5,299.5L260.5,299.5z"/>
	<path class="st26" d="M286.1,349c-0.2,1.9-1.6,3.4-4.2,4.5c-23.7-16.9-27.3-35.6-24.8-56.6C272.1,299,278.1,337.8,286.1,349z"/>
	<path class="st37" d="M257.4,267.4c1.5-0.4,2.6,0.1,3.1,1.5c0.8,2.1-0.9,3,0.2,5c1.1,2,2,2.5,1.1,3.9c-0.8,1.4-2,1.3-2,3.3
		c-2.9-4.6-4.3-8.1-4.2-10.5C255.7,268.2,256.3,267.2,257.4,267.4L257.4,267.4z"/>
	<path class="st44" d="M276.4,349.2c-2.9-2.6-6.7-6.1-9.9-10.3l-1.6-31c4.4,6.2,7.6,13.9,9.5,23.3
		C276.3,340.5,276.5,346.3,276.4,349.2L276.4,349.2z"/>
	<path class="st10" d="M245.8,295.9c0.1-0.6,0.2-1.6,0.2-2.8c0-3.4-0.5-8.2-0.7-8.1c0-0.1,0-0.2,0-0.2c0,0,0-0.1,0-0.2
		c-0.2-1.2,0.2-2.2,0.8-2.9c0,0,0,0,0.1-0.1c1.1-1.1,2.8-1.5,4.2-1c1,0.3,1.8,1.1,2.2,2.3c0,0.1,0.1,0.2,0.1,0.3
		c0,0,0.1,0.2,0.2,0.7c0.3,1.7,0.9,6.2,0.7,9.8c0,0.6-0.1,1.2-0.2,1.8C260,305,238.7,298,245.8,295.9z"/>
	<path class="st19" d="M246,281.7C246.1,281.7,246.1,281.7,246,281.7c0.6-0.6,1.2-1,2-1.2c0.8-0.2,1.6-0.1,2.3,0.2
		c1,0.4,1.8,1.2,2.2,2.3c0,0.1,0.1,0.2,0.1,0.3c0,0,0.1,0.3,0.2,0.7c0.3,1.7,0.9,6.2,0.7,9.8c-0.7,0.2-4.3,0.8-7.5-0.7
		c0-3.4-0.5-8.2-0.7-8.1c0-0.1,0-0.2,0-0.2c0,0,0-0.1,0-0.2C245,283.6,245.4,282.6,246,281.7L246,281.7z"/>
	<path class="st10" d="M256.5,291.4c-3.3,2-7.5,1.7-10.6,0.2c-1.3-0.6-2.4-1.5-3.3-2.6v0c-9.2-15.3,12.5-31.8,15.8-12
		C259.9,282.5,263.6,286.7,256.5,291.4z"/>
	<path class="st38" d="M252.5,286.6c-1-0.7-1.3-1.8-0.7-3.3l3.8,3.3C254.5,287.3,253.5,287.3,252.5,286.6L252.5,286.6z"/>
	<path class="st20" d="M253,280c-0.2-0.2-0.2-0.5-0.1-0.7s0.5-0.2,0.7-0.1s0.2,0.5,0.1,0.7C253.6,280.2,253.3,280.2,253,280z"/>
	<path class="st20" d="M257.4,280.4c-0.2-0.2-0.2-0.5-0.1-0.7c0.2-0.2,0.5-0.2,0.7-0.1c0.2,0.2,0.2,0.5,0.1,0.7
		C257.9,280.5,257.6,280.5,257.4,280.4z"/>
	<path class="st20" d="M255.4,286.7l-3.8-3.3c-0.1-0.1-0.1-0.2,0-0.3c0.1-0.1,0.2-0.1,0.2,0l3.8,3.3c0.1,0.1,0.1,0.2,0,0.3
		C255.6,286.8,255.6,286.8,255.4,286.7C255.5,286.8,255.5,286.8,255.4,286.7L255.4,286.7z"/>
	<path class="st19" d="M257.8,273.8c-1.4,0.6-2.7,0.5-3.9-0.2c-1.8-1.1-2.7-0.7-3,0.8c-0.3,1.5-3,0.4-3.5,1
		c-0.5,0.7-0.5,2.1-1.3,2.9c-0.6,0.5-2,0.9-4.3,1.1l-0.2,3.4c-0.1,3.2,0.5,5.5,1.6,6.9c-0.2-0.2-0.4-0.4-0.6-0.7v0
		c-0.7-1-1.2-2.1-1.6-3.4c-0.1-0.4-0.2-0.8-0.2-1.2c-0.1-0.6-0.2-1.2-0.2-1.9c0-0.2-0.1-0.9-0.1-1.1c0-0.3,4.8-11.5,5.7-12.1
		c0,0,10.8,2.6,11,3.2C257.5,272.7,257.7,273.6,257.8,273.8L257.8,273.8z"/>
	<path class="st20" d="M254.9,284c-0.1-0.1-0.1-0.2-0.1-0.3c0.1-0.1,0.2-0.1,0.3-0.1c0.6,0.4,1.6,0.3,1.7,0c0.1-0.1,0-0.2-0.2-0.3
		c-0.9-0.8-1.1-3-1.1-3.1c0-0.1,0.1-0.2,0.2-0.2c0.1,0,0.2,0.1,0.2,0.2c0,0,0.2,2.1,1,2.9c0.4,0.4,0.3,0.7,0.2,0.8
		c-0.3,0.4-1.1,0.5-1.7,0.3C255.2,284.2,255.1,284.1,254.9,284L254.9,284z"/>
	<path class="st12" d="M273.2,350.2c0.4,1,0.3,2.3-0.2,4.1c-0.7,2.6-7.4,6.4-9.6,6.5c-1.4,0.1-2.9-1-4.4-3.3
		c-0.1,1.1-1.1,3.9-2.5,4.1c-4.6,0.7-26.2-3.3-27.8-6.4c-0.8-1.6-0.7-2.8,0.4-3.7L273.2,350.2z"/>
	<path class="st26" d="M243,296.4l2.8-0.5c9,5.8,7.6-0.1,7.6-0.3c0.4,0.5,2,1.6,4.2,3.5c1.8,1.6,4,3.8,6.1,6.8
		c3.5,4.9,6.6,14.6,8.6,24.2c2.3,11.3,3.4,18.7,0.3,20.9c-2.5,1.8-4.6,4.1-17.9,5.3c-8.3,0.7-25.3-2.6-25.7-4.7
		C225.6,332,230.7,309.3,243,296.4z"/>
	<path class="st37" d="M252.1,271.6c-1.4-0.1-1.2,1.4-2.2,2.3c-1,0.9-3.9-0.5-3.9,1.7c0,2.2-1.6,2.7-3.2,2.9
		c-2.1,0.3-2.6,2.7-1.6,7.2c-1.7,0.7-3.2,0.4-4.7-0.8c-1.5-1.2,0.3-3.4,0.3-4.9c0-1.5-2-1.6-2-4c0-2.4,3.3-2.9,3.5-3.8
		c0.2-0.9-0.1-1.7,0.9-3.7c1.1-2,4.5-1.2,4.7-2.8c0.3-1.6,3.1-3.5,5.4-2.2c2.4,1.3,3.3,1.2,5.7,1.5c2.4,0.2,1.8,2.4,3.1,4.2
		c0.9,1.2,0.6,2.4-0.7,3.4C254,273.5,253.5,271.6,252.1,271.6L252.1,271.6z"/>
	<path class="st45" d="M282.8,324.6l-9,0.3l5.5-17l9-0.4L282.8,324.6z"/>
	<path class="st46" d="M278.6,307.2l0.8,0.8l-5.5,17l-0.8-0.8L278.6,307.2z"/>
	<path class="st46" d="M287.6,306.8l0.8,0.8l-9,0.4l-0.8-0.8L287.6,306.8z"/>
	<path class="st10" d="M274.8,320.6c0.2-0.2,0.6-0.4,0.8-0.6c0.3-0.2,0.6-0.4,0.9-0.6c0.6-0.4,1.1-0.9,1.6-1.3c0.5-0.5,1-1,1.5-1.5
		c0.4-0.5,0.8-1.1,1.2-1.7c0.2-0.3,0.6-0.4,0.9-0.2c0.3,0.2,0.4,0.6,0.2,0.9c-0.3,0.7-0.7,1.4-1.1,2c-0.4,0.6-0.9,1.2-1.4,1.8
		c-0.5,0.6-1,1.1-1.6,1.7c-0.3,0.3-0.6,0.5-0.8,0.8c-0.3,0.2-0.6,0.5-0.9,0.8c-0.5,0.4-1.3,0.3-1.7-0.2c-0.4-0.5-0.3-1.3,0.2-1.7
		C274.8,320.7,274.8,320.6,274.8,320.6L274.8,320.6z"/>
	<path class="st10" d="M275.8,321.3C275.8,321.3,275.9,321.3,275.8,321.3l0.2-0.1c0.1,0,0.2-0.1,0.2-0.1c0.2,0,0.3-0.1,0.5-0.2
		c0.3-0.1,0.6-0.3,0.9-0.5c0.6-0.4,1.2-0.8,1.7-1.2c0.5-0.5,1.1-1,1.5-1.5c0.5-0.6,0.9-1.1,1.2-1.8l0,0c0.2-0.3,0.6-0.4,0.9-0.2
		c0.3,0.2,0.4,0.5,0.2,0.8c-0.3,0.7-0.7,1.5-1.1,2.1c-0.4,0.7-0.9,1.3-1.5,1.9c-0.6,0.6-1.2,1.1-1.8,1.6c-0.3,0.2-0.7,0.5-1,0.7
		c-0.2,0.1-0.4,0.2-0.6,0.3c-0.1,0-0.2,0.1-0.3,0.2l-0.2,0.1c0,0-0.1,0.1-0.2,0.1l-0.4,0.2c-0.7,0.2-1.4-0.1-1.7-0.7
		c-0.2-0.7,0.1-1.4,0.7-1.6C275.5,321.3,275.6,321.3,275.8,321.3L275.8,321.3z"/>
	<path class="st10" d="M276.1,322.7c0.3-0.1,0.6-0.3,0.9-0.4c0.3-0.1,0.6-0.3,0.9-0.5c0.6-0.4,1.3-0.7,1.8-1.2
		c0.6-0.4,1.1-0.9,1.6-1.4c0.5-0.5,1-1.1,1.4-1.6l0,0c0.2-0.3,0.7-0.3,0.9-0.1c0.3,0.2,0.3,0.6,0.2,0.9c-0.4,0.7-0.9,1.4-1.4,2
		c-0.5,0.6-1.1,1.2-1.6,1.7c-0.6,0.5-1.2,1-1.8,1.5c-0.3,0.2-0.7,0.5-1,0.7c-0.3,0.2-0.7,0.4-1.1,0.6c-0.6,0.3-1.3,0.1-1.7-0.5
		c-0.3-0.6-0.1-1.3,0.5-1.7C276,322.8,276.1,322.7,276.1,322.7L276.1,322.7z"/>
	<path class="st10" d="M276.2,324.3c0.1,0,0.3-0.1,0.4-0.2c0.1,0,0.3-0.1,0.5-0.2c0.3-0.1,0.6-0.3,0.9-0.4c0.6-0.3,1.2-0.6,1.7-0.9
		c0.6-0.3,1.1-0.7,1.6-1.2c0.5-0.4,0.9-0.9,1.3-1.5l0,0c0.2-0.3,0.6-0.4,0.9-0.1c0.3,0.2,0.3,0.6,0.2,0.8c-0.4,0.7-0.8,1.3-1.3,1.9
		c-0.5,0.6-1.1,1.1-1.6,1.6c-0.6,0.5-1.2,0.9-1.8,1.3c-0.3,0.2-0.7,0.4-1,0.6c-0.2,0.1-0.3,0.2-0.5,0.3c-0.2,0.1-0.3,0.2-0.6,0.2
		c-0.6,0.3-1.4,0-1.6-0.7c-0.3-0.6,0-1.3,0.7-1.6C276.1,324.3,276.1,324.3,276.2,324.3L276.2,324.3z"/>
	<path class="st10" d="M270.9,324.6c0.6-2.5,1.8-4,3.8-4.7c2-0.7,3.2-1.2,3.5-1.5l4.3,4c-1.7,2.5-4.4,4.6-8,6.4L270.9,324.6z"/>
	<path class="st10" d="M270.9,324.6c0.9-3.8,2.4-6.2,4.4-7.2l-0.8,2.6L270.9,324.6z"/>
	<path class="st10" d="M247.7,309.6c-2.2,6.5-5.5,16.1-2.1,22.3c7.9,7.1,18.6-0.8,24.6-6.9c2.4-3.7,7.6-0.8,5.4,3
		c-1.7,2.4-3.7,4.7-5.8,6.8c-8.2,8.7-22.2,13.2-32.1,4.4c-8.4-8.9-6.5-22.4-4.9-33.4C235.3,295.5,250.4,299.5,247.7,309.6
		L247.7,309.6z"/>
	<path class="st26" d="M270.9,333.8c-0.6,0.8-1.3,1.6-2,2.4c-6.8,7.3-18.7,12.5-28.8,6.2c-11.2-6.9-13.7-22-11.2-31.9
		c2.1-8.4,6.8-13.1,14.1-14.1c4.9,3.9,7.4,7.3,7.5,10.3c0.1,4.4-4,10.7-2.2,20.3c1.4,7.3,11.7,3.9,16.5,1.9c1-0.4,1.8-0.8,2.4-1.1
		C267.5,330.9,268.7,332.9,270.9,333.8L270.9,333.8z"/>
	<path class="st12" d="M245.8,295.9c9,5.8,7.6-0.1,7.6-0.3c0,0,0,0,0,0c1.4-0.3,2.6,0.2,3.8,1.3c0.4,0.6,0.5,1.3,0.4,2.2
		c-0.1,0.8-0.5,1.8-1.6,2.9c-0.8-1.3-1.7-2-2.6-2.2l-1.1,3.1c-2.5-0.7-4.7-1.7-6.6-2.9c-0.8-0.6-1.6-1.2-2-1.9
		c-0.3-0.5-0.6-1.1-0.7-1.6C244.1,295.7,245.1,295.5,245.8,295.9L245.8,295.9z"/>
	<path class="st10" d="M297.5,354.9c-0.5,1.1-2.4,0-3.4,0.4c1,1.3,2.3,2.3,2.3,2.4c1.8,0.9,3.7,1.6,5.5,2.3c1.8,2.4-5.2-0.3-6.1-0.5
		c0,0,0,0,0,0c1.6,1.3,3.3,2.5,5.1,3.6c1.2,2.9-5.5-1.8-6.4-2.3c0,0,0,0,0,0c1.3,1.5,2.8,2.9,4.4,4c1,3.1-5.5-2.3-6.2-3
		c0.8,1.4,1.9,2.6,2.9,3.8c0.5,3.1-4.4-2.5-4.9-3.2c-0.5-0.2-3.1-2.5-4.7-5.8c-0.5-1.1,2.6-4.1,3.6-3.5c0.7,0.4,2.9,0.4,3.4,0.5
		C294.3,353.9,297.1,353.6,297.5,354.9z"/>
	<path class="st44" d="M270.9,333.8c-0.6,0.8-1.3,1.6-2,2.4c-4.8-2.1-4.1-7.3-4.1-7.4c1-0.4,1.8-0.8,2.4-1.1
		C267.5,330.9,268.7,332.9,270.9,333.8L270.9,333.8z"/>
	<path class="st44" d="M286.1,349c-0.2,1.9-1.6,3.4-4.2,4.5c-0.5-0.4-1.2-0.9-2-1.5c2.3-0.7,4.1-2.3,5.2-4.7
		C285.4,348,285.8,348.6,286.1,349L286.1,349z"/>
	<path class="st44" d="M254.2,331.6c-1.2,0-2.3-0.1-3.2-0.5c-4.7-1.7-3.3-12.7-3.3-13.2c0-0.2,0.2-0.3,0.4-0.3
		c0.2,0,0.4,0.2,0.3,0.4c0,0.1-1.3,10.8,2.8,12.4c4.2,1.5,14-1.9,14.1-1.9c0.2-0.1,0.4,0,0.5,0.2c0.1,0.2,0,0.4-0.2,0.5
		C265.3,329.4,259,331.6,254.2,331.6L254.2,331.6z"/>
	<path class="st44" d="M250,345.4c-0.8,0-1.6-0.1-2.4-0.2c-14.9-1.9-18.8-18.5-18.9-18.6c0-0.2,0.1-0.4,0.3-0.5
		c0.2,0,0.4,0.1,0.5,0.3c0,0.2,3.9,16.2,18.2,18c12.3,1.5,21.5-9.6,21.6-9.8c0.1-0.2,0.4-0.2,0.6-0.1c0.2,0.2,0.2,0.4,0.1,0.6
		C269.8,335.3,261.5,345.4,250,345.4L250,345.4z"/>
	<path class="st10" d="M242,283c1.4,0,2.5-1.4,2.5-3.1c0-1.7-1.1-3.1-2.5-3.1c-1.4,0-2.5,1.4-2.5,3.1C239.5,281.6,240.6,283,242,283
		z"/>
	<path class="st20" d="M240.7,281c-0.1,0-0.2-0.1-0.2-0.2c-0.2-1.4,0-2.3,0.6-2.7c0.8-0.5,2,0.2,2,0.2c0.1,0.1,0.1,0.2,0.1,0.3
		c-0.1,0.1-0.2,0.1-0.3,0.1c0,0-1-0.6-1.6-0.2c-0.4,0.3-0.6,1.1-0.4,2.3C240.9,280.9,240.8,281,240.7,281
		C240.7,281,240.7,281,240.7,281L240.7,281z"/>
	<path class="st20" d="M242.6,281.1c-0.1,0-0.2-0.1-0.2-0.2c0,0-0.4-1.6-1.6-1.9c-0.1,0-0.2-0.2-0.2-0.2c0-0.1,0.1-0.2,0.2-0.2
		c1.5,0.3,2,2.1,2,2.2C242.8,280.9,242.8,281,242.6,281.1C242.6,281.1,242.6,281.1,242.6,281.1L242.6,281.1z"/>
</g>
</svg>
