<svg width="641" height="641" viewBox="0 0 641 641" fill="none" xmlns="http://www.w3.org/2000/svg">
<g clip-path="url(#clip0_306_31)">
<rect width="641" height="641" fill="white"/>
<path d="M640.565 8.70093e-05V255.427L456.539 124.56L367.832 213.28L338.699 184.147C296.093 141.533 226.76 141.533 184.149 184.147C141.539 226.76 141.539 296.094 184.149 338.707L213.279 367.827L124.567 456.547L255.429 640.573H0V8.70093e-05H640.565" fill="#EC008C"/>
<path d="M205.613 317.24C174.839 286.467 174.839 236.387 205.613 205.613C236.389 174.84 286.465 174.84 317.24 205.613L346.365 234.747L290.556 290.547L234.743 346.36L205.613 317.24" fill="#EC008C"/>
<path d="M124.567 456.547V640.573H255.43L124.567 456.547Z" fill="#92004D"/>
</g>
<defs>
<clipPath id="clip0_306_31">
<rect width="641" height="641" rx="50" fill="white"/>
</clipPath>
</defs>
</svg>
